<svg width="18" height="18" viewBox="0 0 18 18" fill="none" xmlns="http://www.w3.org/2000/svg">
<path d="M1.88836 1.88706C0.667969 3.10745 0.667969 5.07163 0.667969 9C0.667969 12.445 0.667969 14.3794 1.49102 15.6264L15.6277 1.48972C14.3808 0.666668 12.4463 0.666668 9.0013 0.666668C5.07293 0.666668 3.10875 0.666668 1.88836 1.88706Z" fill="black"/>
<path d="M16.5116 2.37361L9.88518 9L16.5116 15.6264C17.3346 14.3794 17.3346 12.445 17.3346 9C17.3346 5.555 17.3346 3.62055 16.5116 2.37361Z" fill="black"/>
<path d="M9.0013 9.88388L2.37491 16.5103C3.62186 17.3333 5.5563 17.3333 9.0013 17.3333C12.4463 17.3333 14.3807 17.3333 15.6277 16.5103L9.0013 9.88388Z" fill="black"/>
</svg>
