<svg width="16" height="18" viewBox="0 0 16 18" fill="none" xmlns="http://www.w3.org/2000/svg">
<path fill-rule="evenodd" clip-rule="evenodd" d="M9.41599 1.56114C9.25727 0.927566 8.68408 0.458344 8.0013 0.458344C7.3186 0.458344 6.74546 0.927468 6.58667 1.56094C6.55932 1.57482 6.53213 1.58913 6.5051 1.60387L2.50991 3.78235C2.44104 3.81991 2.37395 3.85983 2.30873 3.902C2.137 3.83091 1.94873 3.79168 1.7513 3.79168C0.945887 3.79168 0.292969 4.44459 0.292969 5.25001C0.292969 5.72998 0.524841 6.15579 0.882679 6.42155C0.881523 6.45627 0.880941 6.49108 0.880941 6.52598V10.6407C0.880941 10.8078 0.894279 10.9729 0.92019 11.1349C0.541129 11.3982 0.292969 11.8368 0.292969 12.3333C0.292969 13.1388 0.945887 13.7917 1.7513 13.7917C2.0976 13.7917 2.41571 13.671 2.66585 13.4693L3.75559 14.0636L2.04385 17.0202C1.8709 17.3189 1.97287 17.7013 2.27159 17.8742C2.57032 18.0472 2.95268 17.9452 3.12563 17.6465L4.8534 14.6622L6.5051 15.5628C6.53212 15.5775 6.55931 15.5918 6.58666 15.6057C6.74544 16.2392 7.31859 16.7083 8.0013 16.7083C8.68409 16.7083 9.25728 16.2391 9.416 15.6055C9.44321 15.5917 9.47027 15.5775 9.49717 15.5628L11.1493 14.6619L12.8772 17.6465C13.0501 17.9452 13.4325 18.0472 13.7312 17.8742C14.0299 17.7013 14.1319 17.3189 13.959 17.0202L12.2471 14.0633L13.3366 13.4692C13.5868 13.6709 13.9049 13.7917 14.2513 13.7917C15.0567 13.7917 15.7096 13.1388 15.7096 12.3333C15.7096 11.8367 15.4613 11.398 15.0821 11.1346C15.108 10.9728 15.1213 10.8077 15.1213 10.6407V6.52598C15.1213 6.49116 15.1207 6.45644 15.1196 6.4218C15.4776 6.15606 15.7096 5.73013 15.7096 5.25001C15.7096 4.44459 15.0567 3.79168 14.2513 3.79168C14.0538 3.79168 13.8655 3.83094 13.6937 3.90209C13.6284 3.85989 13.5613 3.81993 13.4924 3.78235L9.49717 1.60387C9.47027 1.58921 9.4432 1.57496 9.41599 1.56114ZM6.8653 2.83122C7.13262 3.16285 7.54218 3.37501 8.0013 3.37501C8.46036 3.37501 8.86988 3.1629 9.1372 2.83135L12.8473 4.85436C12.8119 4.98018 12.793 5.11288 12.793 5.25001C12.793 5.92398 13.2502 6.49116 13.8713 6.65835V10.6407C13.8713 10.7389 13.8636 10.836 13.8487 10.9313C13.2391 11.106 12.793 11.6676 12.793 12.3333C12.793 12.3362 12.793 12.3391 12.793 12.3419L11.6206 12.9812L9.37765 9.10702C9.56089 8.83937 9.66807 8.51554 9.66807 8.16668C9.66807 7.2462 8.92188 6.50001 8.00141 6.50001C7.08093 6.50001 6.33474 7.2462 6.33474 8.16668C6.33474 8.51554 6.44192 8.83937 6.62516 9.10702L4.38209 12.9814L3.20961 12.3421C3.20963 12.3392 3.20964 12.3363 3.20964 12.3333C3.20964 11.6675 2.76334 11.1058 2.15354 10.9312C2.13862 10.836 2.13094 10.7389 2.13094 10.6407V6.65844C2.75228 6.49137 3.20964 5.9241 3.20964 5.25001C3.20964 5.11282 3.19069 4.98006 3.15528 4.8542L6.8653 2.83122ZM5.4799 13.58L6.86531 14.3355C7.13263 14.0038 7.54219 13.7917 8.0013 13.7917C8.46035 13.7917 8.86987 14.0038 9.13719 14.3353L10.5228 13.5798L8.33451 9.80005C8.22687 9.82188 8.11548 9.83334 8.00141 9.83334C7.88733 9.83334 7.77594 9.82188 7.66831 9.80005L5.4799 13.58Z" fill="black"/>
</svg>
