<svg width="18" height="18" viewBox="0 0 18 18" fill="none" xmlns="http://www.w3.org/2000/svg">
<path fill-rule="evenodd" clip-rule="evenodd" d="M17.3226 9.82067L13.1784 5.6765C13.8503 5.65233 14.4858 5.67526 15.0391 5.71756C16.2523 5.81032 17.1888 6.74682 17.2815 7.96C17.3238 8.51333 17.3468 9.14879 17.3226 9.82067Z" fill="black"/>
<path d="M7.95911 17.2824C6.74592 17.1897 5.80943 16.2532 5.71667 15.04C5.67438 14.4869 5.65145 13.8517 5.67558 13.1801L9.81899 17.3235C9.1474 17.3477 8.51222 17.3247 7.95911 17.2824Z" fill="black"/>
<path fill-rule="evenodd" clip-rule="evenodd" d="M7.63781 7.63871C8.68806 6.58846 10.1287 6.06567 11.5657 5.83148L17.1676 11.4335C16.9334 12.8704 16.4106 14.311 15.3604 15.3613C14.31 16.4117 12.8691 16.9345 11.4319 17.1686L5.83047 11.5672C6.0646 10.13 6.58739 8.68913 7.63781 7.63871ZM11.4738 8.97471C11.7179 8.73064 12.1136 8.73064 12.3577 8.97471L12.7491 9.36611L13.1405 8.97471C13.3846 8.73064 13.7803 8.73064 14.0244 8.97471C14.2685 9.21879 14.2685 9.61452 14.0244 9.8586L13.633 10.25L14.0244 10.6414C14.2685 10.8855 14.2685 11.2812 14.0244 11.5253C13.7803 11.7693 13.3846 11.7693 13.1405 11.5253L12.7491 11.1339L12.383 11.5L12.7744 11.8914C13.0185 12.1355 13.0185 12.5312 12.7744 12.7753C12.5303 13.0193 12.1346 13.0193 11.8905 12.7753L11.4991 12.3839L11.133 12.75L11.5244 13.1414C11.7685 13.3855 11.7685 13.7812 11.5244 14.0253C11.2803 14.2693 10.8846 14.2693 10.6405 14.0253L10.2491 13.6339L9.85771 14.0253C9.61364 14.2693 9.21791 14.2693 8.97383 14.0253C8.72975 13.7812 8.72975 13.3855 8.97383 13.1414L9.36522 12.75L8.97383 12.3586C8.72975 12.1145 8.72975 11.7188 8.97383 11.4747C9.21791 11.2306 9.61364 11.2306 9.85771 11.4747L10.2491 11.8661L10.6152 11.5L10.2238 11.1086C9.97975 10.8645 9.97975 10.4688 10.2238 10.2247C10.4679 9.98064 10.8636 9.98064 11.1077 10.2247L11.4991 10.6161L11.8652 10.25L11.4738 9.8586C11.2298 9.61452 11.2298 9.21879 11.4738 8.97471Z" fill="black"/>
<path d="M3.94227 7.74821C3.26035 6.67936 2.52836 5.97786 1.97531 5.547C1.69861 5.33143 1.46669 5.18361 1.30843 5.09168C1.22933 5.04572 1.16874 5.0138 1.13031 4.9944C1.1111 4.98471 1.09744 4.97815 1.08979 4.97455L1.08315 4.97147L0.822865 4.85717C0.471862 6.33455 0.725995 7.95295 1.65703 9.2968C2.40395 10.3749 3.46372 11.099 4.62431 11.4313L4.64059 11.4359C4.64059 11.4359 4.69174 10.8645 4.76969 10.5065C4.82678 10.2442 4.88381 10.0648 4.95317 9.84404C4.74372 9.22823 4.42546 8.50557 3.94227 7.74821Z" fill="black"/>
<path d="M7.02164 1.76012C7.20422 2.48807 7.55765 3.48851 8.24007 4.55814C8.42584 4.8493 8.61528 5.11316 8.80376 5.35167C9.36027 5.09651 9.82031 4.92612 10.5049 4.77074C10.8106 4.70135 11.2953 4.63022 11.2953 4.63022L11.2915 4.61727C11.129 4.05732 10.8749 3.51409 10.5253 3.00955C9.62604 1.71154 8.27327 0.92661 6.83704 0.721058C6.84114 0.767361 6.84736 0.828105 6.85674 0.901964C6.88208 1.10161 6.93039 1.39632 7.02164 1.76012Z" fill="black"/>
<path d="M5.58642 0.771567C5.5838 0.736984 5.58214 0.709472 5.5811 0.689453C4.67373 0.773428 3.77547 1.09068 2.97633 1.65723C2.22102 2.19271 1.64248 2.88841 1.25399 3.6674L1.58193 3.81141L1.58308 3.81192L1.58582 3.81314L1.59316 3.81645L1.61502 3.82657C1.63273 3.83491 1.65664 3.84645 1.68628 3.86141C1.74555 3.89132 1.82778 3.9349 1.92913 3.99378C2.13177 4.11149 2.41128 4.29061 2.73671 4.54415C3.38795 5.0515 4.22307 5.85692 4.99245 7.06285C5.24757 7.46273 5.46227 7.85462 5.64296 8.23036C5.93906 7.70417 6.30428 7.20447 6.75393 6.75483C7.04927 6.45949 7.3662 6.20057 7.69804 5.97374C7.52724 5.74849 7.357 5.50543 7.18989 5.2435C6.421 4.03833 6.01923 2.90567 5.80944 2.06923C5.7045 1.65084 5.64732 1.30552 5.61624 1.0607C5.60069 0.93823 5.59164 0.840719 5.58642 0.771567Z" fill="black"/>
</svg>
