<svg width="18" height="18" viewBox="0 0 18 18" fill="none" xmlns="http://www.w3.org/2000/svg">
<path fill-rule="evenodd" clip-rule="evenodd" d="M0.667969 8.99999V5.66666C0.667969 3.30963 0.667969 2.13112 1.4002 1.39889C2.13243 0.666656 3.31095 0.666656 5.66797 0.666656H12.3346C14.6917 0.666656 15.8702 0.666656 16.6024 1.39889C17.3346 2.13112 17.3346 3.30963 17.3346 5.66666V8.99999C17.3346 11.357 17.3346 12.5355 16.6024 13.2678C16.0638 13.8064 15.2836 13.9488 13.9704 13.9865C13.9674 13.3733 13.7544 12.761 13.3314 12.2646C13.3075 12.2365 13.293 12.2016 13.2901 12.1649C13.1856 10.8553 12.1457 9.81541 10.8361 9.7109C10.7993 9.70797 10.7644 9.69351 10.7364 9.66959C9.73647 8.81748 8.26583 8.81748 7.26593 9.66959C7.23786 9.69351 7.20295 9.70797 7.16619 9.7109C5.85662 9.81541 4.81672 10.8553 4.71221 12.1649C4.70928 12.2016 4.69482 12.2365 4.6709 12.2646C4.24793 12.761 4.03491 13.3733 4.03185 13.9865C2.71889 13.9488 1.93881 13.8064 1.4002 13.2678C0.667969 12.5355 0.667969 11.357 0.667969 8.99999ZM5.8763 3.99999C5.8763 3.65481 6.15612 3.37499 6.5013 3.37499H11.5013C11.8465 3.37499 12.1263 3.65481 12.1263 3.99999C12.1263 4.34517 11.8465 4.62499 11.5013 4.62499H6.5013C6.15612 4.62499 5.8763 4.34517 5.8763 3.99999ZM4.83464 6.29166C4.48946 6.29166 4.20964 6.57148 4.20964 6.91666C4.20964 7.26183 4.48946 7.54166 4.83464 7.54166H13.168C13.5131 7.54166 13.793 7.26183 13.793 6.91666C13.793 6.57148 13.5131 6.29166 13.168 6.29166H4.83464Z" fill="black"/>
<path fill-rule="evenodd" clip-rule="evenodd" d="M9.9256 10.621C9.3929 10.167 8.6094 10.167 8.0767 10.621C7.84842 10.8155 7.5646 10.9331 7.26562 10.9569C6.56794 11.0126 6.01393 11.5666 5.95825 12.2643C5.93439 12.5633 5.81683 12.8471 5.62229 13.0754C5.16833 13.6081 5.16833 14.3916 5.62229 14.9243C5.81683 15.1526 5.93439 15.4364 5.95825 15.7354C6.01393 16.433 6.56794 16.9871 7.26562 17.0427C7.5646 17.0666 7.84842 17.1842 8.0767 17.3787C8.6094 17.8327 9.3929 17.8327 9.9256 17.3787C10.1539 17.1842 10.4377 17.0666 10.7367 17.0427C11.4344 16.9871 11.9884 16.433 12.044 15.7354C12.0679 15.4364 12.1855 15.1526 12.38 14.9243C12.834 14.3916 12.834 13.6081 12.38 13.0754C12.1855 12.8471 12.0679 12.5633 12.044 12.2643C11.9884 11.5666 11.4344 11.0126 10.7367 10.9569C10.4377 10.9331 10.1539 10.8155 9.9256 10.621ZM10.6778 13.6236C10.9301 13.388 10.9437 12.9926 10.7082 12.7402C10.4727 12.4879 10.0772 12.4742 9.82485 12.7098L8.46559 13.9784L8.17775 13.7098C7.92541 13.4742 7.52992 13.4879 7.29439 13.7402C7.05887 13.9926 7.07251 14.388 7.32486 14.6236L8.03914 15.2902C8.27927 15.5144 8.65191 15.5144 8.89204 15.2902L10.6778 13.6236Z" fill="black"/>
</svg>
