<svg width="20" height="20" viewBox="0 0 20 20" fill="none" xmlns="http://www.w3.org/2000/svg">
<path fill-rule="evenodd" clip-rule="evenodd" d="M2.75959 12.2496C2.89794 11.9334 3.26646 11.7892 3.5827 11.9276L7.74937 13.7505C8.0656 13.8888 8.20981 14.2573 8.07145 14.5736C7.9331 14.8898 7.56458 15.034 7.24834 14.8957L3.08168 13.0728C2.76544 12.9344 2.62124 12.5659 2.75959 12.2496ZM17.2381 12.2496C17.3765 12.5659 17.2323 12.9344 16.916 13.0728L3.5827 18.9061C3.26646 19.0444 2.89794 18.9002 2.75959 18.584C2.62124 18.2678 2.76544 17.8992 3.08168 17.7609L16.415 11.9276C16.7312 11.7892 17.0998 11.9334 17.2381 12.2496ZM11.5096 16.0778C11.6479 15.7615 12.0165 15.6173 12.3327 15.7557L16.916 17.7609C17.2323 17.8992 17.3765 18.2678 17.2381 18.584C17.0998 18.9002 16.7312 19.0444 16.415 18.9061L11.8317 16.9009C11.5154 16.7625 11.3712 16.394 11.5096 16.0778Z" fill="black"/>
<path fill-rule="evenodd" clip-rule="evenodd" d="M9.66667 12.5C11.4444 12.5 15 11.4679 15 7.33954C15 4.81333 13.4593 2.98117 12.0008 1.88717C11.2525 1.3259 10.2941 1.90804 10.2941 2.82413C10.2941 3.44307 10.1187 4.47179 9.63303 5.23332C9.06471 6.12453 8.12606 5.35083 7.97747 4.31354C7.90295 3.79334 7.33032 3.57824 6.88415 3.87729C6.00699 4.46522 5 5.59181 5 7.33954C5 11.4679 8.11111 12.5 9.66667 12.5ZM12.6796 7.73469C13.0102 7.83388 13.1978 8.18231 13.0986 8.51293C12.8746 9.25989 11.9453 10.625 10 10.625C9.65482 10.625 9.375 10.3452 9.375 10C9.375 9.65482 9.65482 9.375 10 9.375C11.2547 9.375 11.7921 8.51789 11.9014 8.15374C12.0005 7.82312 12.349 7.63551 12.6796 7.73469Z" fill="black"/>
</svg>
