<svg width="16" height="18" viewBox="0 0 16 18" fill="none" xmlns="http://www.w3.org/2000/svg">
<path fill-rule="evenodd" clip-rule="evenodd" d="M0.814596 3.23534C0.5 3.68357 0.5 5.01589 0.5 7.68055V8.9928C0.5 13.6912 4.03247 15.9712 6.2488 16.9394C6.85001 17.202 7.15062 17.3333 8 17.3333C8.84938 17.3333 9.14999 17.202 9.7512 16.9394C11.9675 15.9712 15.5 13.6912 15.5 8.9928V7.68055C15.5 5.01589 15.5 3.68357 15.1854 3.23534C14.8708 2.78712 13.6181 2.3583 11.1126 1.50066L10.6352 1.33727C9.32918 0.8902 8.67616 0.666668 8 0.666668C7.32384 0.666668 6.67082 0.8902 5.36477 1.33727L4.88743 1.50066C2.38194 2.3583 1.12919 2.78712 0.814596 3.23534ZM10.5495 7.74959C10.7794 7.49211 10.7571 7.09702 10.4996 6.86712C10.2421 6.63723 9.84702 6.65959 9.61712 6.91707L7.10714 9.72825L6.38288 8.91707C6.15298 8.65959 5.75789 8.63723 5.50041 8.86712C5.24293 9.09702 5.22056 9.49211 5.45046 9.74959L6.64093 11.0829C6.75951 11.2157 6.9291 11.2917 7.10714 11.2917C7.28518 11.2917 7.45478 11.2157 7.57335 11.0829L10.5495 7.74959Z" fill="black"/>
</svg>
