<svg width="18" height="17" viewBox="0 0 18 17" fill="none" xmlns="http://www.w3.org/2000/svg">
<path fill-rule="evenodd" clip-rule="evenodd" d="M2.80966 12.8881C3.38204 11.9932 4.60754 12.0226 5.21606 12.8015C6.04105 13.8576 7.19268 14.875 9.00144 14.875C10.842 14.875 11.9762 14.0593 12.7556 13.0175C13.3556 12.2154 14.6604 12.0844 15.2894 13.0362C15.8103 13.8243 16.3753 14.4421 17.4781 14.702C17.8141 14.7812 18.0223 15.1177 17.9431 15.4537C17.864 15.7896 17.5274 15.9978 17.1914 15.9187C15.6481 15.555 14.8518 14.641 14.2466 13.7254C14.1992 13.6536 14.1278 13.6172 14.0353 13.6189C13.9365 13.6208 13.8293 13.6689 13.7565 13.7662C12.7835 15.067 11.3016 16.125 9.00144 16.125C6.63263 16.125 5.1586 14.7584 4.23101 13.571C4.17124 13.4945 4.09324 13.4654 4.02615 13.4669C3.96287 13.4682 3.90499 13.4955 3.86268 13.5616C3.24644 14.5251 2.45071 15.5324 0.811455 15.9187C0.475478 15.9978 0.138937 15.7896 0.05977 15.4537C-0.0193972 15.1177 0.188788 14.7812 0.524765 14.702C1.69222 14.4269 2.25776 13.7509 2.80966 12.8881Z" fill="black"/>
<path d="M17.4781 10.5353C16.3753 10.2755 15.8103 9.65762 15.2894 8.86955C14.7058 7.98643 13.5404 8.03547 12.896 8.68778L11.9181 7.58333L6.50206 1.44515C6.05015 0.932975 5.25981 0.908301 4.77683 1.39128C4.3393 1.82881 4.31239 2.52944 4.71507 2.99923L5.53817 3.95951C6.04186 4.54716 5.23222 5.84487 5.23222 5.84487L3.16674 8.33306C3.03203 8.43437 2.91068 8.56351 2.80966 8.72143C2.25776 9.58428 1.69222 10.2602 0.524765 10.5353C0.188788 10.6145 -0.0193972 10.951 0.05977 11.287C0.138937 11.623 0.475478 11.8312 0.811455 11.752C2.45071 11.3657 3.24644 10.3584 3.86268 9.39497C3.90499 9.32883 3.96287 9.30154 4.02615 9.30019C4.09324 9.29874 4.17124 9.32787 4.23101 9.40438C5.1586 10.5918 6.63263 11.9583 9.00144 11.9583C11.3016 11.9583 12.7835 10.9003 13.7565 9.59955C13.8293 9.50223 13.9365 9.45412 14.0353 9.45225C14.1278 9.45049 14.1992 9.48696 14.2466 9.55878C14.8518 10.4744 15.6481 11.3883 17.1914 11.752C17.5274 11.8312 17.864 11.623 17.9431 11.287C18.0223 10.951 17.8141 10.6145 17.4781 10.5353Z" fill="black"/>
<path d="M13.1681 4.66667C14.3187 4.66667 15.2514 3.73393 15.2514 2.58333C15.2514 1.43274 14.3187 0.5 13.1681 0.5C12.0175 0.5 11.0848 1.43274 11.0848 2.58333C11.0848 3.73393 12.0175 4.66667 13.1681 4.66667Z" fill="black"/>
</svg>
