<svg width="18" height="17" viewBox="0 0 18 17" fill="none" xmlns="http://www.w3.org/2000/svg">
<path fill-rule="evenodd" clip-rule="evenodd" d="M0.876975 8.90072C0.868218 9.04747 0.889024 9.22547 0.930635 9.58148L1.26454 12.4382C1.41523 13.7275 2.10415 14.8928 3.16107 15.6464C3.9398 16.2016 4.87236 16.5 5.82875 16.5H8.84031C9.7967 16.5 10.7293 16.2016 11.508 15.6464C12.1775 15.169 12.6994 14.5264 13.0303 13.7917H14.8346C16.5604 13.7917 17.9596 12.3926 17.9596 10.6667C17.9596 8.94077 16.5604 7.54166 14.8346 7.54166H12.9356C12.7783 7.45457 12.6049 7.39191 12.4201 7.35907C12.2754 7.33333 12.0962 7.33333 11.7377 7.33333H2.93132C2.57289 7.33333 2.39367 7.33333 2.24893 7.35907C1.49019 7.49397 0.922879 8.13145 0.876975 8.90072ZM13.782 8.79166C13.7865 8.82769 13.7899 8.86406 13.7921 8.90072C13.8008 9.04746 13.78 9.22546 13.7384 9.58144L13.4045 12.4382C13.4005 12.4728 13.3961 12.5073 13.3912 12.5417H14.8346C15.8701 12.5417 16.7096 11.7022 16.7096 10.6667C16.7096 9.63113 15.8701 8.79166 14.8346 8.79166H13.782Z" fill="black"/>
<path fill-rule="evenodd" clip-rule="evenodd" d="M7.77662 0.224722C8.0207 0.4688 8.0207 0.864528 7.77662 1.10861C7.56046 1.32477 7.56046 1.67523 7.77662 1.89139C8.48094 2.5957 8.48094 3.73762 7.77662 4.44194C7.53254 4.68602 7.13682 4.68602 6.89274 4.44194C6.64866 4.19786 6.64866 3.80213 6.89274 3.55806C7.1089 3.3419 7.1089 2.99143 6.89274 2.77527C6.18842 2.07096 6.18842 0.929037 6.89274 0.224722C7.13682 -0.0193553 7.53254 -0.0193553 7.77662 0.224722Z" fill="black"/>
<path fill-rule="evenodd" clip-rule="evenodd" d="M4.0265 1.47472C4.27057 1.7188 4.27057 2.11453 4.0265 2.35861L3.92973 2.45537C3.72702 2.65808 3.70422 2.97899 3.87622 3.20833C4.42146 3.93532 4.34917 4.9526 3.70659 5.59518L3.60983 5.69194C3.36575 5.93602 2.97002 5.93602 2.72595 5.69194C2.48187 5.44786 2.48187 5.05213 2.72595 4.80806L2.82271 4.71129C3.02542 4.50858 3.04822 4.18767 2.87622 3.95833C2.33098 3.23134 2.40328 2.21406 3.04585 1.57149L3.14261 1.47472C3.38669 1.23064 3.78242 1.23064 4.0265 1.47472Z" fill="black"/>
<path fill-rule="evenodd" clip-rule="evenodd" d="M11.9432 1.47472C12.1872 1.7188 12.1872 2.11453 11.9432 2.35861L11.8464 2.45537C11.6437 2.65808 11.6209 2.97899 11.7929 3.20833C12.3381 3.93532 12.2658 4.9526 11.6233 5.59518L11.5265 5.69194C11.2824 5.93602 10.8867 5.93602 10.6426 5.69194C10.3985 5.44786 10.3985 5.05213 10.6426 4.80806L10.7394 4.71129C10.9421 4.50858 10.9649 4.18767 10.7929 3.95833C10.2476 3.23134 10.3199 2.21406 10.9625 1.57149L11.0593 1.47472C11.3034 1.23064 11.6991 1.23064 11.9432 1.47472Z" fill="black"/>
</svg>
