<svg width="18" height="18" viewBox="0 0 18 18" fill="none" xmlns="http://www.w3.org/2000/svg">
<path d="M12.6191 6.44187L12.9061 4.07514C12.973 3.52377 13.0064 3.24806 12.9487 3.01889C12.8717 2.71333 12.6846 2.45303 12.4285 2.29526C12.2364 2.17693 11.979 2.14111 11.4642 2.06948C10.9495 1.99785 10.6921 1.96204 10.4781 2.02387C10.1929 2.1063 9.94985 2.30674 9.80256 2.5811C9.69209 2.78687 9.62277 3.3584 9.55589 3.90978L4.44628 3.19876C4.51316 2.64738 4.58248 2.07585 4.52475 1.84668C4.44779 1.54112 4.26066 1.28082 4.00453 1.12305C3.81242 1.00472 3.55504 0.9689 3.04028 0.897269C2.52552 0.825639 2.26813 0.789823 2.05418 0.85165C1.76891 0.934086 1.5259 1.13453 1.3786 1.40889C1.26813 1.61465 1.2347 1.89034 1.16782 2.44172L0.880775 4.80846C0.813901 5.35984 0.780464 5.63553 0.838185 5.8647C0.915147 6.17026 1.10228 6.43056 1.35841 6.58834C1.55051 6.70667 1.8079 6.74248 2.32266 6.81411C2.83742 6.88574 3.09481 6.92156 3.30876 6.85973C3.59403 6.7773 3.83704 6.57685 3.98433 6.3025C4.09481 6.09673 4.16412 5.5252 4.231 4.97382L9.34061 5.68483C9.27374 6.23621 9.20442 6.80774 9.26214 7.03692C9.3391 7.34248 9.52623 7.60278 9.78237 7.76055C9.97447 7.87888 10.2319 7.9147 10.7466 7.98633C11.2614 8.05796 11.5188 8.09377 11.7327 8.03195C12.018 7.94951 12.261 7.74907 12.4083 7.47471C12.5188 7.26895 12.5522 6.99324 12.6191 6.44187Z" fill="black"/>
<path d="M5.46608 15.6042L4.88939 13.2989C4.75504 12.7618 4.68787 12.4933 4.71679 12.258C4.75536 11.9442 4.90872 11.6597 5.14313 11.467C5.31893 11.3225 5.56964 11.2506 6.07104 11.1067C6.57244 10.9627 6.82314 10.8908 7.04285 10.9218C7.33579 10.9631 7.60141 11.1274 7.78128 11.3784C7.91618 11.5668 8.05544 12.1234 8.18979 12.6605L13.1668 11.2321C13.0324 10.695 12.8932 10.1383 12.9221 9.90298C12.9607 9.5892 13.114 9.30468 13.3484 9.11202C13.5242 8.96752 13.7749 8.89556 14.2763 8.75166C14.7777 8.60775 15.0284 8.5358 15.2481 8.56678C15.5411 8.60809 15.8067 8.77236 15.9866 9.02344C16.1215 9.21175 16.1886 9.48029 16.323 10.0174L16.8997 12.3227C17.034 12.8597 17.1012 13.1283 17.0723 13.3636C17.0337 13.6774 16.8804 13.9619 16.6459 14.1546C16.4701 14.2991 16.2194 14.371 15.718 14.5149C15.2166 14.6588 14.9659 14.7308 14.7462 14.6998C14.4533 14.6585 14.1877 14.4942 14.0078 14.2431C13.8729 14.0548 13.7336 13.4981 13.5993 12.9611L8.6223 14.3895C8.75665 14.9266 8.89591 15.4833 8.86699 15.7186C8.82842 16.0324 8.67507 16.3169 8.44065 16.5096C8.26485 16.6541 8.01414 16.726 7.51274 16.8699C7.01135 17.0138 6.76064 17.0858 6.54094 17.0548C6.24799 17.0135 5.98237 16.8492 5.8025 16.5981C5.6676 16.4098 5.60043 16.1413 5.46608 15.6042Z" fill="black"/>
</svg>
