<svg width="16" height="18" viewBox="0 0 16 18" fill="none" xmlns="http://www.w3.org/2000/svg">
<path fill-rule="evenodd" clip-rule="evenodd" d="M4.87428 4.84455C4.87422 4.84082 4.87419 4.83708 4.87419 4.83333V4C4.87419 2.27411 6.2733 0.875 7.99919 0.875C9.72508 0.875 11.1242 2.27411 11.1242 4V4.83333C11.1242 4.83708 11.1242 4.84082 11.1241 4.84455C12.2052 4.87479 12.8637 4.98661 13.368 5.39998C14.0592 5.96662 14.2516 6.92867 14.6364 8.85275L15.1364 11.3528C15.6898 14.1198 15.9665 15.5033 15.2163 16.4183C14.4662 17.3333 13.0553 17.3333 10.2335 17.3333H5.76485C2.94304 17.3333 1.53213 17.3333 0.78199 16.4183C0.0318463 15.5033 0.308548 14.1198 0.861952 11.3528L1.36195 8.85275C1.74677 6.92867 1.93918 5.96662 2.63037 5.39998C3.13461 4.9866 3.79313 4.87479 4.87428 4.84455ZM6.12419 4C6.12419 2.96447 6.96365 2.125 7.99919 2.125C9.03472 2.125 9.87419 2.96447 9.87419 4V4.83333C9.87419 4.83333 9.87419 4.83334 9.87419 4.83333C9.82785 4.83333 9.78096 4.83333 9.73348 4.83333H6.26485C6.21739 4.83333 6.17051 4.83333 6.12419 4.83334C6.12419 4.83334 6.12419 4.83334 6.12419 4.83334V4ZM10.4992 8.16667C10.9594 8.16667 11.3325 7.79357 11.3325 7.33333C11.3325 6.8731 10.9594 6.5 10.4992 6.5C10.0389 6.5 9.66584 6.8731 9.66584 7.33333C9.66584 7.79357 10.0389 8.16667 10.4992 8.16667ZM6.3325 7.33333C6.3325 7.79357 5.95941 8.16667 5.49917 8.16667C5.03893 8.16667 4.66584 7.79357 4.66584 7.33333C4.66584 6.8731 5.03893 6.5 5.49917 6.5C5.95941 6.5 6.3325 6.8731 6.3325 7.33333Z" fill="black"/>
</svg>
