<svg width="14" height="14" viewBox="0 0 14 14" fill="none" xmlns="http://www.w3.org/2000/svg">
<path d="M5.75532 6.80975V4.25115H6.8369C7.45495 4.25115 7.97762 4.26048 8.05393 4.26982C8.12832 4.28103 8.23896 4.30157 8.30191 4.31838C8.36486 4.33332 8.48122 4.37628 8.55943 4.41549C8.6529 4.46032 8.74255 4.52195 8.81695 4.59665C8.8799 4.65828 8.95811 4.75913 8.99244 4.82076C9.02487 4.88239 9.07256 4.99632 9.09736 5.07289C9.13551 5.19615 9.14123 5.25031 9.14123 5.51177C9.14123 5.74709 9.1336 5.83487 9.1069 5.92264C9.08591 5.98428 9.04013 6.0926 9.00198 6.16543C8.95811 6.24761 8.88562 6.34099 8.80741 6.41756C8.72539 6.49786 8.63192 6.5651 8.53081 6.61739C8.44688 6.65848 8.31908 6.71264 8.24468 6.73318C8.17029 6.75559 8.04248 6.77987 7.95855 6.78921C7.87462 6.79855 7.34431 6.80602 5.75532 6.80975Z" fill="black"/>
<path fill-rule="evenodd" clip-rule="evenodd" d="M1.62546 0.00609954C1.59303 0.00983474 1.51673 0.0266431 1.45378 0.0434515C1.39083 0.0583922 1.27065 0.105082 1.18672 0.148037C1.07608 0.204065 0.99215 0.265695 0.881511 0.375884C0.778503 0.476734 0.706016 0.568246 0.658327 0.656023C0.620176 0.726992 0.568672 0.850253 0.543874 0.926825L0.5 1.06689C0.5 12.7002 0.501908 12.9299 0.534336 13.0475C0.555319 13.1148 0.601101 13.2324 0.639252 13.309C0.692663 13.4173 0.747982 13.4883 0.881511 13.619C1.02076 13.7572 1.08371 13.802 1.21533 13.8655C1.30499 13.9085 1.43852 13.957 1.51101 13.972C1.62737 13.9963 2.32744 14 7.00477 14H7.00527C12.1991 14 12.3688 14 12.5081 13.9645C12.5863 13.9458 12.7103 13.901 12.7847 13.8655C12.8591 13.8282 12.9716 13.7572 13.0384 13.7031C13.1032 13.6508 13.1948 13.5555 13.2406 13.4901C13.2883 13.4266 13.3512 13.3202 13.3836 13.253C13.4161 13.1857 13.4561 13.0737 13.4714 13.0008C13.4962 12.8869 13.5 12.1343 13.5 7.00025C13.5 1.70561 13.4962 1.11919 13.4695 0.997793C13.4523 0.923089 13.4046 0.79049 13.3627 0.702713C13.2978 0.571981 13.2539 0.515953 13.1109 0.375884C12.9773 0.245152 12.9029 0.190992 12.7942 0.138699C12.716 0.0994794 12.5996 0.054657 12.5367 0.0359811C12.428 0.00423195 12.159 0.00236435 7.05246 0.000496755C4.09956 -0.00137084 1.65598 0.00236435 1.62546 0.00609954ZM4.40095 10.8251L4.40286 3.18475L6.39054 3.19222C8.16266 3.19782 8.39538 3.20156 8.54035 3.22957C8.63001 3.24825 8.7788 3.28373 8.87418 3.30988C8.96955 3.33602 9.11453 3.38645 9.19846 3.42193C9.28239 3.45742 9.41974 3.52465 9.50367 3.57508C9.60858 3.63484 9.72304 3.72822 9.8661 3.86829C10.0225 4.02143 10.1026 4.11668 10.177 4.24181C10.2324 4.33332 10.3029 4.47713 10.3354 4.5593C10.3678 4.64147 10.4098 4.77221 10.4288 4.84878C10.4479 4.92535 10.4746 5.05235 10.4861 5.12892C10.5013 5.21856 10.5051 5.39412 10.4994 5.62383C10.4918 5.91331 10.4803 6.01416 10.4422 6.17477C10.4174 6.28309 10.3602 6.45491 10.3163 6.55763C10.2724 6.66035 10.1866 6.81536 10.1274 6.90313C10.0683 6.99091 9.95576 7.12538 9.87564 7.20195C9.79743 7.27852 9.66009 7.39058 9.57043 7.44847C9.48078 7.50637 9.34343 7.58294 9.26522 7.61842C9.18701 7.65391 9.05348 7.7062 8.96955 7.73235C8.88562 7.76036 8.73492 7.79771 8.63573 7.81826C8.53654 7.83693 8.36486 7.86308 8.25422 7.87428C8.13786 7.88549 7.57322 7.89296 5.75532 7.89296V10.8251H4.40095Z" fill="black"/>
</svg>
