<svg width="18" height="18" viewBox="0 0 18 18" fill="none" xmlns="http://www.w3.org/2000/svg">
<path d="M4.83464 3.16667C2.53345 3.16667 0.667969 5.03215 0.667969 7.33334C0.667969 9.04194 1.69638 10.5103 3.16797 11.1533V13.375H14.8346L14.8346 11.1533C16.3062 10.5103 17.3346 9.04194 17.3346 7.33334C17.3346 5.03215 15.4692 3.16667 13.168 3.16667C12.9592 3.16667 12.754 3.18202 12.5535 3.21166C12.0516 1.73172 10.6508 0.666672 9.0013 0.666672C7.35176 0.666672 5.95098 1.73172 5.4491 3.21166C5.24858 3.18202 5.0434 3.16667 4.83464 3.16667Z" fill="black"/>
<path d="M14.8332 14.625H3.16938C3.17787 15.7891 3.23749 16.4266 3.65612 16.8452C4.14428 17.3333 4.92995 17.3333 6.5013 17.3333H11.5013C13.0726 17.3333 13.8583 17.3333 14.3465 16.8452C14.7651 16.4266 14.8247 15.7891 14.8332 14.625Z" fill="black"/>
</svg>
