<svg width="20" height="20" viewBox="0 0 20 20" fill="none" xmlns="http://www.w3.org/2000/svg">
<path fill-rule="evenodd" clip-rule="evenodd" d="M7.7957 1.05315C7.75703 1.0815 7.33516 1.59882 6.86406 2.20472L6.00977 3.30315C5.32773 3.30315 5.07812 3.31732 5.01484 3.33858C4.95508 3.3563 4.88125 3.40945 4.85664 3.45551C4.825 3.5122 4.81094 3.8878 4.79688 4.82323L4.7793 6.11299C4.2625 6.29016 3.51719 6.55236 2.79297 6.80748C2.06875 7.0626 1.39023 7.31063 1.28477 7.35315C1.1582 7.4063 1.08086 7.46299 1.04922 7.53032C1.02109 7.58347 1 7.66496 1 7.71457C1 7.76772 1.04922 7.85276 1.12305 7.92717C1.18984 7.99449 1.28125 8.05118 1.32344 8.05118C1.36914 8.05118 1.49219 8.02284 1.59766 7.98386C1.6598 7.96298 1.94531 7.86214 2.33409 7.72483C2.60512 7.6291 2.92633 7.51565 3.25703 7.39921C4.06562 7.11575 4.74063 6.88189 4.76172 6.88189C4.78281 6.88189 4.79688 7.02362 4.79688 7.23622C4.79688 7.51614 4.81094 7.60827 4.85664 7.67913C4.8918 7.72874 4.96914 7.78543 5.02539 7.80669C5.08164 7.82441 5.29258 7.83858 5.48945 7.83858H5.85156L5.86914 18.8299L6.0625 19C9.04023 19 9.74336 18.9858 9.78906 18.9646C9.82773 18.9433 9.88398 18.8795 9.91211 18.8228C9.95781 18.7307 9.96484 18.0398 9.96484 13.2776V7.83858L10.8156 7.82087L11.0195 7.59055V4.72047C11.1924 4.66502 11.7969 4.45411 12.5694 4.18453C12.8335 4.09237 13.1173 3.99335 13.4102 3.89134C13.8546 3.73516 14.2875 3.58323 14.6605 3.45232C15.2523 3.24464 15.6932 3.08989 15.7902 3.05512C15.952 2.99488 16.0891 2.94882 16.0996 2.94882C16.1102 2.94882 16.1172 3.26772 16.1172 3.65748V4.36614L15.0449 6.38228C14.2363 6.40354 14.2152 6.40709 14.1238 6.50276L14.0254 6.59843V9.5748L14.2188 9.76969H18.7961L19 9.53937C19 7.20433 18.9859 6.64094 18.9648 6.59134C18.9438 6.54528 18.8805 6.4815 18.8242 6.44961C18.7434 6.4 18.6344 6.38583 18.3391 6.38583L17.9629 6.38228L16.8555 4.34843V2.64764C17.6324 2.36063 17.8926 2.25079 17.9348 2.22244C17.9805 2.19409 18.0332 2.10906 18.0578 2.03819C18.0859 1.93543 18.0859 1.87874 18.0578 1.79724C18.0332 1.74055 17.9664 1.6626 17.9102 1.63071C17.8504 1.59528 17.7695 1.56693 17.7238 1.56693C17.6816 1.56693 17.2598 1.71575 16.7852 1.89646C16.3105 2.08071 15.5898 2.34646 15.1855 2.48819C15.0789 2.52557 14.9243 2.57997 14.7375 2.64571C14.216 2.82923 13.4431 3.10119 12.7598 3.33858L11.0723 3.93386C11.0301 3.54764 11.0055 3.47677 10.9352 3.40945C10.8473 3.32795 10.8156 3.32087 10.4113 3.31024L9.98242 3.29606C8.70273 1.64843 8.28789 1.1311 8.23164 1.08504C8.16836 1.02835 8.09453 1 8.00312 1C7.93281 1 7.83789 1.0248 7.7957 1.05315ZM7.45469 2.5874L6.93086 3.25C8.54805 3.26417 9.02617 3.26063 9.0332 3.25C9.04375 3.23937 8.81875 2.93819 8.53047 2.57677C8.2457 2.21535 8.00664 1.92126 7.99609 1.92126C7.98555 1.92126 7.74297 2.2189 7.45469 2.5874ZM5.42969 7.09449H10.3164V4.01181H5.42969V7.09449ZM16.1488 5.87913C16.2895 5.60276 16.4301 5.33701 16.4617 5.2874C16.5144 5.19884 16.518 5.2059 16.8061 5.78308L16.8063 5.78346C16.968 6.10591 17.098 6.37874 17.098 6.39646C17.1016 6.41063 16.8238 6.42126 16.4863 6.42126C16.1488 6.42126 15.8746 6.41063 15.8781 6.4C15.8808 6.39588 15.9005 6.35774 15.9318 6.29669L15.9319 6.29664L15.9319 6.29653C15.9815 6.19997 16.0606 6.04619 16.1488 5.87913ZM14.7109 9.07874H18.2969L18.2793 7.11221L14.7109 7.09449V9.07874ZM6.55117 9.74134C6.53359 9.74843 6.51953 9.37284 6.51953 8.79528V7.83858L8.68164 7.84213L8.59023 7.92008C8.5375 7.9626 8.06641 8.3878 7.54258 8.86614C7.01523 9.34449 6.57227 9.7378 6.55117 9.74134ZM7.11366 10.2444C7.03553 10.3166 6.97823 10.3695 6.94844 10.3969L6.73047 10.6024C6.90262 10.7585 7.44905 11.2477 8.06265 11.7971L8.06345 11.7978L8.06578 11.7999L8.06624 11.8003L8.10156 11.8319L9.24414 12.8594C9.2582 11.1232 9.2582 10.0957 9.25117 9.45433L9.24062 8.29213L8.20352 9.24173C7.77329 9.63544 7.34901 10.0272 7.11366 10.2444ZM6.51953 16.0201V13.7169C6.51953 12.2075 6.53008 11.4138 6.55469 11.4138C6.57578 11.4138 6.70586 11.5236 6.84648 11.6547C6.98359 11.7894 7.51797 12.2783 8.03125 12.7425C8.54453 13.2067 8.99102 13.6106 9.02617 13.6425C9.08594 13.6957 9.01914 13.763 7.88359 14.7976C7.22266 15.4035 6.64609 15.9244 6.51953 16.0201ZM7.87305 15.726L6.5125 16.952L6.51953 18.2878H9.26172C9.26172 15.3504 9.25469 14.4965 9.24766 14.4965C9.24062 14.4965 8.62188 15.0492 7.87305 15.726Z" fill="#13465B" stroke="#13465B" stroke-width="0.3"/>
</svg>
