<svg width="18" height="18" viewBox="0 0 18 18" fill="none" xmlns="http://www.w3.org/2000/svg">
<path fill-rule="evenodd" clip-rule="evenodd" d="M8.12268 0.0416879H9.87601C10.6247 0.0416635 11.2491 0.041643 11.7447 0.108282C12.2679 0.178619 12.7402 0.333344 13.1198 0.712903C13.4994 1.09246 13.6541 1.56479 13.7244 2.08796C13.7911 2.58361 13.791 3.20796 13.791 3.95669L13.791 5.04173C14.2715 5.04211 14.6787 5.04578 15.0152 5.08001C15.4097 5.12015 15.7759 5.20741 16.1059 5.4279C16.3561 5.5951 16.5709 5.80995 16.7381 6.06017C16.9586 6.39017 17.0459 6.75631 17.086 7.15087C17.1244 7.52782 17.1244 7.99343 17.1243 8.55142V16.7084H17.3327C17.6779 16.7084 17.9577 16.9882 17.9577 17.3334C17.9577 17.6785 17.6779 17.9584 17.3327 17.9584H0.666016C0.320838 17.9584 0.0410156 17.6785 0.0410156 17.3334C0.0410156 16.9882 0.320838 16.7084 0.666016 16.7084H0.874349L0.874348 8.5514C0.874335 7.99342 0.874323 7.52781 0.912668 7.15087C0.952806 6.75631 1.04007 6.39017 1.26056 6.06017C1.42776 5.80995 1.64261 5.5951 1.89283 5.4279C2.22283 5.20741 2.58897 5.12015 2.98353 5.08001C3.32004 5.04578 3.72721 5.04211 4.20768 5.04173L4.20768 3.95669C4.20766 3.20796 4.20764 2.58361 4.27427 2.08796C4.34461 1.56479 4.49934 1.09246 4.8789 0.712902C5.25845 0.333344 5.73079 0.178619 6.25395 0.108282C6.7496 0.041643 7.37395 0.0416635 8.12268 0.0416879ZM4.20768 6.29177C3.72219 6.29231 3.37923 6.29621 3.11004 6.32359C2.81431 6.35367 2.67767 6.40685 2.5873 6.46724C2.47356 6.54324 2.3759 6.6409 2.2999 6.75464C2.23951 6.84501 2.18633 6.98165 2.15625 7.27738C2.1251 7.58355 2.12435 7.98516 2.12435 8.58335V16.7084H4.20768V6.29177ZM5.45768 16.7084H8.37435V14.8334C8.37435 14.4882 8.65417 14.2084 8.99935 14.2084C9.34453 14.2084 9.62435 14.4882 9.62435 14.8334V16.7084H12.541V4.00002C12.541 3.19668 12.5397 2.65705 12.4856 2.25452C12.4339 1.86996 12.3445 1.70538 12.2359 1.59679C12.1273 1.48819 11.9627 1.39884 11.5782 1.34713C11.1757 1.29302 10.636 1.29169 9.83268 1.29169H8.16602C7.36267 1.29169 6.82304 1.29302 6.42051 1.34713C6.03596 1.39884 5.87138 1.48819 5.76278 1.59679C5.65418 1.70538 5.56483 1.86996 5.51313 2.25452C5.45901 2.65705 5.45768 3.19668 5.45768 4.00002V16.7084ZM13.791 16.7084H15.8743V8.58335C15.8743 7.98516 15.8736 7.58355 15.8424 7.27738C15.8124 6.98165 15.7592 6.84501 15.6988 6.75464C15.6228 6.6409 15.5251 6.54324 15.4114 6.46724C15.321 6.40685 15.1844 6.35367 14.8887 6.32359C14.6195 6.29621 14.2765 6.29231 13.791 6.29177V16.7084ZM6.70768 3.16669C6.70768 2.82151 6.9875 2.54169 7.33268 2.54169H10.666C11.0112 2.54169 11.291 2.82151 11.291 3.16669C11.291 3.51187 11.0112 3.79169 10.666 3.79169H7.33268C6.9875 3.79169 6.70768 3.51187 6.70768 3.16669ZM6.70768 5.66669C6.70768 5.32151 6.9875 5.04169 7.33268 5.04169H10.666C11.0112 5.04169 11.291 5.32151 11.291 5.66669C11.291 6.01187 11.0112 6.29169 10.666 6.29169H7.33268C6.9875 6.29169 6.70768 6.01187 6.70768 5.66669ZM6.70768 8.16669C6.70768 7.82151 6.9875 7.54169 7.33268 7.54169H10.666C11.0112 7.54169 11.291 7.82151 11.291 8.16669C11.291 8.51187 11.0112 8.79169 10.666 8.79169H7.33268C6.9875 8.79169 6.70768 8.51187 6.70768 8.16669ZM6.70768 10.6667C6.70768 10.3215 6.9875 10.0417 7.33268 10.0417H10.666C11.0112 10.0417 11.291 10.3215 11.291 10.6667C11.291 11.0119 11.0112 11.2917 10.666 11.2917H7.33268C6.9875 11.2917 6.70768 11.0119 6.70768 10.6667Z" fill="#13465B"/>
</svg>
