<svg width="18" height="18" viewBox="0 0 18 18" fill="none" xmlns="http://www.w3.org/2000/svg">
<path fill-rule="evenodd" clip-rule="evenodd" d="M8.3646 1.33242C7.8529 1.40004 7.22103 1.54518 6.32218 1.75261L5.2987 1.9888C4.53952 2.164 4.01669 2.28545 3.61736 2.4225C3.23184 2.55482 3.01374 2.68526 2.84916 2.84983C2.68458 3.01441 2.55415 3.23252 2.42183 3.61804C2.28478 4.01737 2.16332 4.54019 1.98813 5.29937L1.75194 6.32285C1.54451 7.2217 1.39937 7.85357 1.33175 8.36527C1.26587 8.86378 1.28106 9.20107 1.369 9.5077C1.45694 9.81433 1.62282 10.1084 1.9429 10.4962C2.27144 10.8943 2.72941 11.3532 3.3817 12.0055L4.90639 13.5302C6.0393 14.6631 6.84546 15.4674 7.53852 15.9962C8.21717 16.5139 8.71342 16.7084 9.21795 16.7084C9.72249 16.7084 10.2187 16.5139 10.8974 15.9962C11.5904 15.4674 12.3966 14.6631 13.5295 13.5302C14.6624 12.3973 15.4667 11.5911 15.9955 10.8981C16.5133 10.2194 16.7077 9.72316 16.7077 9.21862C16.7077 8.71409 16.5133 8.21784 15.9955 7.53919C15.4667 6.84613 14.6624 6.03997 13.5295 4.90706L12.0048 3.38237C11.3525 2.73008 10.8936 2.27211 10.4955 1.94357C10.1077 1.62349 9.81366 1.45761 9.50703 1.36967C9.2004 1.28173 8.86311 1.26654 8.3646 1.33242ZM8.20083 0.0931949C8.79859 0.0141975 9.32275 0.0164268 9.85163 0.168108C10.3805 0.319789 10.8262 0.595701 11.2912 0.979504C11.7408 1.35052 12.2414 1.85117 12.8668 2.47663L14.4467 4.05647C15.5389 5.14864 16.4036 6.01334 16.9893 6.78097C17.5919 7.5708 17.9577 8.33089 17.9577 9.21862C17.9577 10.1064 17.5919 10.8664 16.9893 11.6563C16.4036 12.4239 15.5389 13.2886 14.4467 14.3808L14.3801 14.4473C13.2879 15.5395 12.4232 16.4043 11.6556 16.9899C10.8658 17.5926 10.1057 17.9584 9.21795 17.9584C8.33022 17.9584 7.57013 17.5926 6.7803 16.9899C6.01266 16.4042 5.14796 15.5395 4.05578 14.4473L2.47598 12.8675C1.85051 12.2421 1.34985 11.7414 0.978833 11.2919C0.59503 10.8268 0.319117 10.3812 0.167436 9.8523C0.0157555 9.32342 0.0135261 8.79926 0.0925235 8.2015C0.16889 7.62365 0.328104 6.93375 0.527007 6.07187L0.777559 4.98614C0.943531 4.26688 1.07887 3.68035 1.23953 3.21226C1.40731 2.7234 1.61863 2.3126 1.96528 1.96595C2.31193 1.6193 2.72273 1.40798 3.21159 1.2402C3.67968 1.07955 4.26621 0.944202 4.98547 0.77823L6.0712 0.527678C6.93308 0.328775 7.62298 0.169562 8.20083 0.0931949ZM6.90844 5.6627C6.50165 5.25591 5.8421 5.25591 5.43531 5.6627C5.02851 6.0695 5.02851 6.72904 5.43531 7.13584C5.8421 7.54264 6.50165 7.54264 6.90844 7.13584C7.31524 6.72904 7.31524 6.0695 6.90844 5.6627ZM4.55142 4.77882C5.44637 3.88387 6.89738 3.88387 7.79233 4.77882C8.68728 5.67377 8.68728 7.12477 7.79233 8.01972C6.89738 8.91468 5.44637 8.91468 4.55142 8.01972C3.65647 7.12477 3.65647 5.67377 4.55142 4.77882ZM9.82677 9.08915C9.67935 9.08776 9.48558 9.15392 9.31942 9.32009C8.99647 9.64303 9.08141 9.96596 9.1721 10.0567C9.2628 10.1474 9.58573 10.2323 9.90867 9.90934C10.562 9.25598 11.6901 9.03913 12.413 9.76203C12.9738 10.3228 12.9691 11.1275 12.6337 11.7652C12.8013 12.0086 12.7768 12.3445 12.5603 12.561C12.3446 12.7768 12.0103 12.8018 11.767 12.6361C11.3863 12.8384 10.9531 12.9142 10.5402 12.8294C10.2021 12.7599 9.9843 12.4295 10.0538 12.0914C10.1233 11.7533 10.4537 11.5355 10.7918 11.605C10.9394 11.6353 11.1774 11.5869 11.3818 11.3825C11.7048 11.0595 11.6198 10.7366 11.5291 10.6459C11.4384 10.5552 11.1155 10.4703 10.7926 10.7932C10.1392 11.4466 9.01112 11.6634 8.28822 10.9405C7.72741 10.3797 7.73217 9.57508 8.06754 8.93739C7.89994 8.69392 7.9244 8.35809 8.14091 8.14158C8.35663 7.92585 8.69081 7.90079 8.93405 8.06639C9.21727 7.91588 9.52846 7.83628 9.83855 7.8392C10.1837 7.84246 10.4609 8.12491 10.4576 8.47007C10.4544 8.81523 10.1719 9.0924 9.82677 9.08915Z" fill="white"/>
</svg>
