<svg width="20" height="20" viewBox="0 0 20 20" fill="none" xmlns="http://www.w3.org/2000/svg">
<g clip-path="url(#clip0_252_890)">
<path d="M4.16602 7.09555C4.16602 4.09727 6.77769 1.66669 9.99935 1.66669C13.221 1.66669 15.8327 4.09727 15.8327 7.09555C15.8327 10.0703 13.9709 13.5416 11.0661 14.783C10.3889 15.0724 9.60979 15.0724 8.93263 14.783C6.02781 13.5416 4.16602 10.0703 4.16602 7.09555Z" stroke="#13465B" stroke-width="1.5"/>
<path d="M11.6673 7.49998C11.6673 8.42045 10.9211 9.16665 10.0007 9.16665C9.08018 9.16665 8.33398 8.42045 8.33398 7.49998C8.33398 6.57951 9.08018 5.83331 10.0007 5.83331C10.9211 5.83331 11.6673 6.57951 11.6673 7.49998Z" stroke="#13465B" stroke-width="1.5"/>
<path d="M17.4665 12.9167C18.0209 13.4188 18.3327 13.9847 18.3327 14.5834C18.3327 16.6544 14.6017 18.3334 9.99935 18.3334C5.39698 18.3334 1.66602 16.6544 1.66602 14.5834C1.66602 13.9847 1.97778 13.4188 2.53224 12.9167" stroke="#13465B" stroke-width="1.5" stroke-linecap="round"/>
</g>
<defs>
<clipPath id="clip0_252_890">
<rect width="20" height="20" fill="white"/>
</clipPath>
</defs>
</svg>
