<svg width="20" height="20" viewBox="0 0 20 20" fill="none" xmlns="http://www.w3.org/2000/svg">
<path fill-rule="evenodd" clip-rule="evenodd" d="M9.36533 2.33242C8.85363 2.40004 8.22177 2.54518 7.32291 2.75261L6.29943 2.9888C5.54025 3.164 5.01743 3.28545 4.6181 3.4225C4.23258 3.55482 4.01447 3.68526 3.8499 3.84983C3.68532 4.01441 3.55488 4.23252 3.42256 4.61804C3.28551 5.01737 3.16406 5.54019 2.98886 6.29937L2.75267 7.32285C2.54524 8.2217 2.40011 8.85357 2.33248 9.36527C2.2666 9.86378 2.28179 10.2011 2.36973 10.5077C2.45767 10.8143 2.62355 11.1084 2.94363 11.4962C3.27218 11.8943 3.73014 12.3532 4.38243 13.0055L5.90713 14.5302C7.04003 15.6631 7.84619 16.4674 8.53925 16.9962C9.2179 17.5139 9.71415 17.7084 10.2187 17.7084C10.7232 17.7084 11.2195 17.5139 11.8981 16.9962C12.5912 16.4674 13.3973 15.6631 14.5302 14.5302C15.6631 13.3973 16.4674 12.5911 16.9962 11.8981C17.514 11.2194 17.7084 10.7232 17.7084 10.2186C17.7084 9.71409 17.514 9.21784 16.9962 8.53919C16.4674 7.84613 15.6631 7.03997 14.5302 5.90706L13.0055 4.38237C12.3533 3.73008 11.8944 3.27211 11.4963 2.94357C11.1085 2.62349 10.8144 2.45761 10.5078 2.36967C10.2011 2.28173 9.86384 2.26654 9.36533 2.33242ZM9.20156 1.09319C9.79933 1.0142 10.3235 1.01643 10.8524 1.16811C11.3812 1.31979 11.8269 1.5957 12.2919 1.9795C12.7415 2.35052 13.2421 2.85117 13.8676 3.47663L15.4474 5.05647C16.5396 6.14864 17.4043 7.01334 17.99 7.78097C18.5926 8.5708 18.9584 9.33089 18.9584 10.2186C18.9584 11.1064 18.5926 11.8664 17.99 12.6563C17.4043 13.4239 16.5396 14.2886 15.4474 15.3808L15.3808 15.4473C14.2887 16.5395 13.424 17.4043 12.6563 17.9899C11.8665 18.5926 11.1064 18.9584 10.2187 18.9584C9.33095 18.9584 8.57086 18.5926 7.78103 17.9899C7.01339 17.4042 6.14869 16.5395 5.05651 15.4473L3.47671 13.8675C2.85125 13.2421 2.35059 12.7414 1.97957 12.2919C1.59576 11.8268 1.31985 11.3812 1.16817 10.8523C1.01649 10.3234 1.01426 9.79926 1.09326 9.2015C1.16962 8.62365 1.32884 7.93375 1.52774 7.07187L1.77829 5.98614C1.94426 5.26688 2.07961 4.68035 2.24026 4.21226C2.40804 3.7234 2.61936 3.3126 2.96601 2.96595C3.31267 2.6193 3.72346 2.40798 4.21232 2.2402C4.68041 2.07955 5.26694 1.9442 5.98621 1.77823L7.07193 1.52768C7.93381 1.32878 8.62371 1.16956 9.20156 1.09319ZM7.90918 6.6627C7.50238 6.25591 6.84283 6.25591 6.43604 6.6627C6.02924 7.0695 6.02924 7.72904 6.43604 8.13584C6.84283 8.54264 7.50238 8.54264 7.90918 8.13584C8.31597 7.72904 8.31597 7.0695 7.90918 6.6627ZM5.55215 5.77882C6.44711 4.88387 7.89811 4.88387 8.79306 5.77882C9.68801 6.67377 9.68801 8.12477 8.79306 9.01972C7.89811 9.91468 6.44711 9.91468 5.55215 9.01972C4.6572 8.12477 4.6572 6.67377 5.55215 5.77882ZM10.8275 10.0891C10.6801 10.0878 10.4863 10.1539 10.3201 10.3201C9.9972 10.643 10.0821 10.966 10.1728 11.0567C10.2635 11.1474 10.5865 11.2323 10.9094 10.9093C11.5628 10.256 12.6908 10.0391 13.4137 10.762C13.9745 11.3228 13.9698 12.1275 13.6344 12.7652C13.802 13.0086 13.7776 13.3445 13.5611 13.561C13.3453 13.7768 13.011 13.8018 12.7677 13.6361C12.387 13.8384 11.9539 13.9142 11.5409 13.8294C11.2028 13.7599 10.985 13.4295 11.0545 13.0914C11.124 12.7533 11.4544 12.5355 11.7925 12.605C11.9402 12.6353 12.1782 12.5869 12.3825 12.3825C12.7055 12.0595 12.6206 11.7366 12.5299 11.6459C12.4392 11.5552 12.1162 11.4703 11.7933 11.7932C11.1399 12.4466 10.0118 12.6634 9.28895 11.9405C8.72815 11.3797 8.7329 10.5751 9.06828 9.93739C8.90067 9.69392 8.92513 9.35809 9.14164 9.14158C9.35736 8.92585 9.69154 8.90079 9.93479 9.06639C10.218 8.91588 10.5292 8.83628 10.8393 8.8392C11.1844 8.84246 11.4616 9.12491 11.4584 9.47007C11.4551 9.81523 11.1727 10.0924 10.8275 10.0891Z" fill="#13465B"/>
</svg>
