<svg width="20" height="20" viewBox="0 0 20 20" fill="none" xmlns="http://www.w3.org/2000/svg">
<path fill-rule="evenodd" clip-rule="evenodd" d="M9.12341 1.04169H10.8767C11.6255 1.04166 12.2498 1.04164 12.7455 1.10828C13.2686 1.17862 13.741 1.33334 14.1205 1.7129C14.5001 2.09246 14.6548 2.56479 14.7252 3.08796C14.7918 3.58361 14.7918 4.20796 14.7917 4.95669L14.7917 6.04173C15.2722 6.04211 15.6794 6.04578 16.0159 6.08001C16.4105 6.12015 16.7766 6.20741 17.1066 6.4279C17.3568 6.5951 17.5717 6.80995 17.7389 7.06017C17.9594 7.39017 18.0466 7.75631 18.0868 8.15087C18.1251 8.52782 18.1251 8.99343 18.1251 9.55142V17.7084H18.3334C18.6786 17.7084 18.9584 17.9882 18.9584 18.3334C18.9584 18.6785 18.6786 18.9584 18.3334 18.9584H1.66675C1.32157 18.9584 1.04175 18.6785 1.04175 18.3334C1.04175 17.9882 1.32157 17.7084 1.66675 17.7084H1.87508L1.87508 9.5514C1.87507 8.99342 1.87506 8.52781 1.9134 8.15087C1.95354 7.75631 2.0408 7.39017 2.2613 7.06017C2.42849 6.80995 2.64334 6.5951 2.89357 6.4279C3.22356 6.20741 3.5897 6.12015 3.98426 6.08001C4.32077 6.04578 4.72794 6.04211 5.20841 6.04173L5.20841 4.95669C5.20839 4.20796 5.20837 3.58361 5.27501 3.08796C5.34534 2.56479 5.50007 2.09246 5.87963 1.7129C6.25919 1.33334 6.73152 1.17862 7.25468 1.10828C7.75033 1.04164 8.37468 1.04166 9.12341 1.04169ZM5.20841 7.29177C4.72292 7.29231 4.37996 7.29621 4.11077 7.32359C3.81505 7.35367 3.67841 7.40685 3.58803 7.46724C3.47429 7.54324 3.37663 7.6409 3.30063 7.75464C3.24025 7.84501 3.18707 7.98165 3.15698 8.27738C3.12584 8.58355 3.12508 8.98516 3.12508 9.58335V17.7084H5.20841V7.29177ZM6.45841 17.7084H9.37508V15.8334C9.37508 15.4882 9.6549 15.2084 10.0001 15.2084C10.3453 15.2084 10.6251 15.4882 10.6251 15.8334V17.7084H13.5417V5.00002C13.5417 4.19668 13.5404 3.65705 13.4863 3.25452C13.4346 2.86996 13.3452 2.70538 13.2367 2.59679C13.1281 2.48819 12.9635 2.39884 12.5789 2.34713C12.1764 2.29302 11.6368 2.29169 10.8334 2.29169H9.16675C8.36341 2.29169 7.82377 2.29302 7.42124 2.34713C7.03669 2.39884 6.87211 2.48819 6.76351 2.59679C6.65491 2.70538 6.56556 2.86996 6.51386 3.25452C6.45974 3.65705 6.45841 4.19668 6.45841 5.00002V17.7084ZM14.7917 17.7084H16.8751V9.58335C16.8751 8.98516 16.8743 8.58355 16.8432 8.27738C16.8131 7.98165 16.7599 7.84501 16.6995 7.75464C16.6235 7.6409 16.5259 7.54324 16.4121 7.46724C16.3218 7.40685 16.1851 7.35367 15.8894 7.32359C15.6202 7.29621 15.2772 7.29231 14.7917 7.29177V17.7084ZM7.70841 4.16669C7.70841 3.82151 7.98824 3.54169 8.33341 3.54169H11.6667C12.0119 3.54169 12.2917 3.82151 12.2917 4.16669C12.2917 4.51187 12.0119 4.79169 11.6667 4.79169H8.33341C7.98824 4.79169 7.70841 4.51187 7.70841 4.16669ZM7.70841 6.66669C7.70841 6.32151 7.98824 6.04169 8.33341 6.04169H11.6667C12.0119 6.04169 12.2917 6.32151 12.2917 6.66669C12.2917 7.01187 12.0119 7.29169 11.6667 7.29169H8.33341C7.98824 7.29169 7.70841 7.01187 7.70841 6.66669ZM7.70841 9.16669C7.70841 8.82151 7.98824 8.54169 8.33341 8.54169H11.6667C12.0119 8.54169 12.2917 8.82151 12.2917 9.16669C12.2917 9.51187 12.0119 9.79169 11.6667 9.79169H8.33341C7.98824 9.79169 7.70841 9.51187 7.70841 9.16669ZM7.70841 11.6667C7.70841 11.3215 7.98824 11.0417 8.33341 11.0417H11.6667C12.0119 11.0417 12.2917 11.3215 12.2917 11.6667C12.2917 12.0119 12.0119 12.2917 11.6667 12.2917H8.33341C7.98824 12.2917 7.70841 12.0119 7.70841 11.6667Z" fill="#13465B"/>
</svg>
