<svg width="45" height="45" viewBox="0 0 45 45" fill="none" xmlns="http://www.w3.org/2000/svg">
<g filter="url(#filter0_i_126_752)">
<path d="M3.45233 20.5652C3.45233 20.5652 21.1434 12.7194 27.2789 9.95675C29.631 8.85176 37.6072 5.3155 37.6072 5.3155C37.6072 5.3155 41.2887 3.76852 40.9818 7.52562C40.8795 9.07276 40.0615 14.4874 39.2434 20.3442C38.0162 28.6322 36.6869 37.6935 36.6869 37.6935C36.6869 37.6935 36.4824 40.2352 34.744 40.6772C33.0056 41.1192 30.1422 39.1302 29.631 38.6881C29.2218 38.3566 21.9614 33.3838 19.3027 30.9527C18.5868 30.2897 17.7688 28.9637 19.4048 27.4166C23.0863 23.7699 27.4834 19.2392 30.1422 16.3661C31.3694 15.04 32.5964 11.9459 27.4834 15.703C20.223 21.1178 13.0648 26.201 13.0648 26.201C13.0648 26.201 11.4286 27.306 8.36082 26.3115C5.29291 25.317 1.7138 23.9909 1.7138 23.9909C1.7138 23.9909 -0.740305 22.3334 3.45233 20.5652Z" fill="white"/>
</g>
<defs>
<filter id="filter0_i_126_752" x="0" y="0" width="45" height="45.5" filterUnits="userSpaceOnUse" color-interpolation-filters="sRGB">
<feFlood flood-opacity="0" result="BackgroundImageFix"/>
<feBlend mode="normal" in="SourceGraphic" in2="BackgroundImageFix" result="shape"/>
<feColorMatrix in="SourceAlpha" type="matrix" values="0 0 0 0 0 0 0 0 0 0 0 0 0 0 0 0 0 0 127 0" result="hardAlpha"/>
<feOffset dy="0.5"/>
<feGaussianBlur stdDeviation="1.25"/>
<feComposite in2="hardAlpha" operator="arithmetic" k2="-1" k3="1"/>
<feColorMatrix type="matrix" values="0 0 0 0 0 0 0 0 0 0 0 0 0 0 0 0 0 0 0.1 0"/>
<feBlend mode="normal" in2="shape" result="effect1_innerShadow_126_752"/>
</filter>
</defs>
</svg>
