<svg width="20" height="19" viewBox="0 0 20 19" fill="none" xmlns="http://www.w3.org/2000/svg">
<path d="M5.87056 0.0853013C6.02006 0.0524845 6.18414 0.0196677 6.23519 0.00872881C6.28624 -0.00221011 6.50501 -0.00221011 6.72744 0.00508251C7.02279 0.0160214 7.21605 0.0451919 7.4567 0.114472C7.63537 0.16552 7.93072 0.285848 8.10575 0.380652C8.28441 0.475456 8.52872 0.632248 8.65269 0.734344C8.77667 0.832795 8.96263 1.0224 9.06837 1.15367C9.17776 1.28494 9.32726 1.51465 9.40748 1.66415C9.48405 1.81365 9.5825 2.06889 9.62626 2.22933C9.67366 2.41894 9.69918 2.63407 9.69918 2.8492C9.69918 3.02787 9.67366 3.30864 9.64813 3.46908C9.61896 3.62951 9.56062 3.88476 9.52051 4.03425C9.4804 4.18375 9.38925 4.4791 9.31267 4.69059C9.23975 4.90208 9.09025 5.27765 8.98086 5.52924C8.86782 5.78084 8.71832 6.07619 8.64904 6.18558C8.57976 6.29497 8.43756 6.47363 8.33546 6.58302C8.23337 6.68877 8.05105 6.84556 7.93072 6.92578C7.81039 7.00964 7.61349 7.11903 7.49317 7.17373C7.37284 7.22477 7.15406 7.2977 7.00821 7.33052C6.866 7.36333 6.60347 7.38886 6.4248 7.38886C6.24977 7.38886 5.96901 7.36333 5.79763 7.32687C5.62625 7.29405 5.37101 7.22113 5.23245 7.16279C5.09389 7.10809 4.8897 7.006 4.78031 6.94036C4.67457 6.87837 4.45579 6.68512 4.29535 6.51374C4.06563 6.27309 3.96718 6.13088 3.84686 5.87564C3.75934 5.69697 3.66089 5.4235 3.62808 5.274C3.58432 5.0771 3.5588 4.75622 3.54421 4.14364C3.53327 3.60764 3.54421 3.13726 3.56974 2.88567C3.59161 2.66324 3.63537 2.37883 3.66089 2.24756C3.69006 2.1163 3.7557 1.89387 3.81039 1.75531C3.86509 1.61675 3.98177 1.39433 4.06563 1.26306C4.1495 1.13179 4.30994 0.94583 4.41568 0.84738C4.52507 0.74893 4.72926 0.592138 4.86782 0.504627C5.00638 0.413469 5.22881 0.293141 5.36007 0.242093C5.49134 0.187398 5.72106 0.118118 5.87056 0.0853013Z" fill="#FFC95E"/>
<path d="M13.072 0.643187C13.2142 0.595785 13.4403 0.537444 13.5825 0.511919C13.7356 0.482749 14.0055 0.468164 14.2571 0.475456C14.5852 0.486395 14.742 0.511919 14.9681 0.584846C15.1285 0.635894 15.3583 0.734344 15.4786 0.803624C15.5989 0.872904 15.7958 1.01876 15.9198 1.1245C16.0401 1.23024 16.2042 1.40162 16.2808 1.50007C16.361 1.59852 16.5725 1.96315 16.7475 2.30226C16.9262 2.64136 17.1778 3.08621 17.309 3.28676C17.4403 3.48731 17.6882 3.841 17.8633 4.07072C18.0346 4.30043 18.3409 4.65777 18.5415 4.85832C18.7457 5.06251 19.0337 5.31046 19.1978 5.4162C19.2301 5.4375 19.2614 5.45835 19.2908 5.47813C19.4312 5.57259 19.4379 5.68289 19.2999 5.78084C19.1832 5.85741 18.9644 5.98503 18.8149 6.06889C18.6655 6.15276 18.3519 6.29861 18.1222 6.39706C17.8924 6.49551 17.5059 6.64501 17.2653 6.72888C17.0246 6.81274 16.6709 6.91848 16.4813 6.95859C16.2188 7.01693 16.1021 7.06069 15.9891 7.15185C15.9088 7.21384 15.7849 7.30135 15.7156 7.3451C15.6463 7.38521 15.464 7.46908 15.3145 7.52742C15.165 7.58941 14.8769 7.66598 14.6764 7.69879C14.4321 7.7389 14.2352 7.75349 14.0748 7.73526C13.9435 7.72432 13.681 7.65504 13.4913 7.58211C13.1996 7.47272 13.1158 7.45449 12.9626 7.47637C12.8642 7.48731 12.5579 7.52013 12.2881 7.55294C12.0182 7.58211 11.588 7.60764 11.3327 7.60764C10.9061 7.60764 10.866 7.60034 10.8806 7.542C10.8915 7.50919 10.9134 7.34146 10.9353 7.17008C10.9572 6.9987 10.9936 6.63043 11.0155 6.34966C11.0374 6.06889 11.0702 5.1245 11.0848 4.25303C11.103 3.26124 11.1285 2.6049 11.1541 2.5028C11.1796 2.41165 11.2634 2.20016 11.3473 2.02878C11.4713 1.77354 11.5552 1.66051 11.8286 1.39068C12.0948 1.1245 12.2261 1.02605 12.4886 0.891136C12.6673 0.799978 12.9298 0.686942 13.072 0.643187Z" fill="#FFC95E"/>
<path d="M3.11759 7.84465C3.27803 7.78995 3.51504 7.72432 3.64631 7.69879C3.77758 7.67327 3.97083 7.64775 4.07657 7.64775C4.22607 7.6441 4.32817 7.67327 4.56883 7.78995C4.73291 7.87017 4.97357 7.96497 5.10483 7.99779C5.29444 8.05249 5.48769 8.06343 6.08934 8.06343C6.69098 8.06343 6.88423 8.05249 7.07384 7.99779C7.20511 7.96133 7.44941 7.86652 7.62079 7.78631C7.91978 7.64045 7.93801 7.63681 8.2042 7.65868C8.35369 7.66962 8.63446 7.72067 8.82407 7.77537C9.01368 7.82642 9.30173 7.93216 9.46217 8.00873C9.62261 8.08166 9.81951 8.19469 9.89973 8.25303C9.97995 8.31137 10.1076 8.44993 10.1805 8.55932C10.2534 8.66871 10.3555 8.86561 10.4066 9.00053C10.4576 9.13909 10.5014 9.26306 10.5014 9.28494C10.5014 9.30682 10.2826 9.32505 9.94713 9.33599C9.47676 9.34693 9.3382 9.36151 9.07202 9.44538C8.89335 9.49642 8.62352 9.60217 8.47038 9.68239C8.31358 9.75896 8.06928 9.9121 7.93072 10.0215C7.79216 10.1309 7.59891 10.3168 7.5041 10.4372C7.41295 10.5539 7.27803 10.7763 7.20511 10.9258C7.12489 11.0862 7.04832 11.3269 7.0155 11.5092C6.97539 11.7316 6.96445 11.9285 6.98268 12.2202C6.99362 12.4426 7.04102 12.8182 7.09207 13.0589C7.13947 13.2995 7.22334 13.635 7.27803 13.8064C7.32908 13.9777 7.42024 14.2075 7.47493 14.3168C7.53327 14.4262 7.60255 14.5502 7.63172 14.5903C7.68277 14.6596 7.67548 14.6705 7.51504 14.7653C7.42389 14.8237 7.28533 14.9294 7.20875 15.0024C7.12853 15.0789 7.00456 15.2284 6.92799 15.3378C6.85506 15.4472 6.74203 15.6368 6.68368 15.7571C6.6217 15.8775 6.52325 16.1327 6.46126 16.3223C6.39927 16.5119 6.32635 16.8073 6.29353 16.9786C6.26071 17.15 6.23519 17.2922 6.23519 17.2959C6.23519 17.3029 4.93597 17.3065 0.535761 17.3068C0.243777 17.3068 0.00826481 17.0648 0.0182315 16.773C0.0182315 16.711 0.0364631 16.6636 0.0364631 16.6322C0.0583409 16.3916 0.116682 15.8738 0.164084 15.4837C0.211486 15.0935 0.313583 14.4189 0.382862 13.9887C0.455789 13.5584 0.572471 12.9276 0.64175 12.5848C0.71103 12.2421 0.853236 11.6368 0.955333 11.2357C1.05743 10.8346 1.22151 10.2694 1.31996 9.97774C1.41841 9.68603 1.59344 9.25941 1.70647 9.0297C1.85962 8.71247 1.96171 8.55932 2.11486 8.40982C2.22789 8.29679 2.42844 8.14729 2.57065 8.07436C2.70921 8.00144 2.95716 7.8957 3.11759 7.84465Z" fill="#FFC95E"/>
<path d="M12.0583 8.04519C12.1635 8.00531 12.3372 7.95821 12.4431 7.93976C12.4433 7.93972 12.4432 7.93945 12.443 7.93945C12.4428 7.93945 12.4428 7.93917 12.443 7.93914C12.5331 7.92362 12.6123 7.91078 12.6352 7.90516C12.6396 7.90409 12.6441 7.90345 12.6483 7.90501C12.6786 7.91628 12.8049 7.97344 12.9517 8.04519C13.1194 8.12541 13.3856 8.22386 13.546 8.26762C13.7903 8.3369 13.9362 8.34784 14.4576 8.34784C14.9827 8.35148 15.1212 8.3369 15.3692 8.27127C15.5296 8.22751 15.7922 8.12906 15.9526 8.04884L15.9539 8.04822C16.2407 7.91392 16.2483 7.91033 16.4995 7.9431C16.6418 7.96133 16.897 8.02332 17.072 8.0853C17.2507 8.14364 17.495 8.24209 17.619 8.30408C17.7466 8.36607 17.9471 8.49004 18.0675 8.57391C18.1878 8.65777 18.3701 8.81821 18.4722 8.92395C18.5743 9.03334 18.7092 9.21931 18.7675 9.33963C18.8295 9.45996 18.9316 9.7152 18.9936 9.90481C19.0556 10.0944 19.165 10.5065 19.2343 10.8164C19.3036 11.1263 19.3984 11.6259 19.4494 11.9285C19.5005 12.2275 19.5807 12.7963 19.6317 13.1865C19.6828 13.5766 19.7484 14.1345 19.7776 14.4262C19.8104 14.7179 19.8578 15.243 19.887 15.5931C19.9645 16.5235 19.2161 17.3068 18.2824 17.3068H16.9079C15.2088 17.3068 13.8195 17.2959 13.8195 17.2776C13.8195 17.2631 13.7867 17.0953 13.7466 16.9057C13.7065 16.7161 13.6299 16.4281 13.5789 16.2676C13.5242 16.1072 13.4111 15.8374 13.3236 15.666C13.2288 15.4764 13.0793 15.2576 12.9371 15.1044C12.8258 14.9868 12.6756 14.8524 12.4648 14.7208C12.4139 14.689 12.3989 14.6208 12.4339 14.5721C12.4667 14.521 12.5397 14.3971 12.5907 14.2986C12.6381 14.1965 12.7256 13.9777 12.7767 13.8064C12.8314 13.635 12.9189 13.2922 12.9699 13.0406C13.0465 12.6797 13.0647 12.4755 13.0684 12.0561C13.0684 11.6441 13.0574 11.48 13.0027 11.3086C12.9663 11.1883 12.8824 10.9841 12.8131 10.8529C12.7475 10.7216 12.6126 10.521 12.5178 10.408C12.4193 10.2913 12.237 10.1127 12.1057 10.0106C11.9745 9.90846 11.7557 9.76625 11.6135 9.69333C11.4713 9.62405 11.2452 9.5256 11.103 9.47819C10.9608 9.43079 10.8186 9.39433 10.7821 9.39433C10.7493 9.39433 10.7092 9.37245 10.6983 9.34693C10.6873 9.32505 10.7493 9.19743 10.8405 9.06616C10.9316 8.93489 11.1176 8.71976 11.2562 8.58849C11.3911 8.45723 11.5843 8.29679 11.6864 8.23116C11.7849 8.16917 11.9562 8.0853 12.0583 8.04519Z" fill="#FFC95E"/>
<path d="M9.15588 10.1054C9.26527 10.0689 9.42935 10.0288 9.52051 10.0106C9.61167 9.99597 9.8742 9.98868 10.1039 9.99597C10.392 10.0033 10.6108 10.0324 10.7967 10.0871C10.9462 10.1309 11.1832 10.2257 11.3254 10.2986C11.4895 10.3861 11.6791 10.532 11.8578 10.707C12.0438 10.8893 12.1677 11.0498 12.2297 11.192C12.2844 11.305 12.3464 11.4946 12.3683 11.6113C12.3938 11.7353 12.4011 11.9796 12.3865 12.2202C12.3756 12.4426 12.3391 12.7526 12.3063 12.913C12.2735 13.0735 12.2078 13.3542 12.1568 13.5329C12.1057 13.7116 12.0182 13.9522 11.9635 14.0616C11.9052 14.171 11.7666 14.357 11.6463 14.4736C11.5296 14.5903 11.3291 14.7398 11.1978 14.8055C11.0665 14.8747 10.8624 14.9586 10.742 14.9878C10.6217 15.0206 10.3519 15.057 10.1404 15.068C9.85962 15.0826 9.6846 15.0753 9.48405 15.0315C9.33455 14.9987 9.09754 14.9185 8.95533 14.8492C8.81313 14.7799 8.59435 14.6268 8.46308 14.5065C8.30265 14.3606 8.18232 14.2111 8.09481 14.0397C8.02188 13.9012 7.91249 13.6168 7.8505 13.4053C7.78852 13.1938 7.71194 12.8729 7.67913 12.6942C7.64996 12.5156 7.62443 12.2348 7.62443 12.0744C7.62443 11.9139 7.63902 11.6915 7.6609 11.5821C7.68277 11.4727 7.74111 11.2904 7.79581 11.181C7.85415 11.057 7.99636 10.8784 8.16773 10.707C8.35005 10.5283 8.53236 10.3861 8.70009 10.3023C8.8423 10.2293 9.04649 10.1418 9.15588 10.1054Z" fill="#FFC95E"/>
<path d="M7.67548 15.5019C7.77758 15.3998 7.93072 15.2831 8.01459 15.243C8.11336 15.1948 8.22902 15.1955 8.32716 15.2451L8.56153 15.3633C8.78031 15.4691 9.0866 15.5931 9.24704 15.6368C9.47311 15.6951 9.64813 15.7134 10.031 15.7134C10.4212 15.7134 10.5852 15.6951 10.815 15.6332C10.9754 15.5894 11.2306 15.4982 11.3801 15.4253C11.5296 15.3524 11.6974 15.2649 11.7521 15.2248C11.8396 15.1664 11.8687 15.1628 11.9526 15.1993C12.0109 15.2248 12.1349 15.2941 12.237 15.356C12.361 15.4326 12.4704 15.5493 12.5871 15.7243C12.6819 15.8629 12.8022 16.078 12.8532 16.2056C12.9043 16.3296 12.9882 16.5921 13.0356 16.7854C13.0866 16.9823 13.1522 17.3251 13.1814 17.5438C13.2743 18.2406 12.6978 18.8383 11.9949 18.8383H7.17655C6.96437 18.8383 6.79578 18.66 6.80766 18.4481C6.8186 18.2293 6.85141 17.8647 6.88058 17.635C6.9134 17.4053 6.9681 17.0771 7.00456 16.9057C7.04467 16.7343 7.1103 16.4973 7.15041 16.377C7.19052 16.2567 7.28533 16.0525 7.35825 15.9212C7.43118 15.79 7.57703 15.6003 7.67548 15.5019Z" fill="#FFC95E"/>
</svg>
