<svg width="22" height="21" viewBox="0 0 22 21" fill="none" xmlns="http://www.w3.org/2000/svg">
<path d="M8.70711 2.79289C8.41421 2.5 7.94281 2.5 7 2.5H6.75V1C6.75 0.585786 6.41421 0.25 6 0.25C5.58579 0.25 5.25 0.585786 5.25 1V2.5H5C4.05719 2.5 3.58579 2.5 3.29289 2.79289C3 3.08579 3 3.55719 3 4.5V4.7038C3.20249 4.65059 3.40564 4.61348 3.60559 4.5866C4.25121 4.4998 5.04487 4.49989 5.9105 4.49999H6.0895C6.95513 4.49989 7.74879 4.4998 8.39441 4.5866C8.59436 4.61348 8.79751 4.65059 8.99999 4.7038L9 4.5C9 3.55719 9 3.08579 8.70711 2.79289Z" fill="#FFC95E"/>
<path fill-rule="evenodd" clip-rule="evenodd" d="M1 19.25C0.585786 19.25 0.25 19.5858 0.25 20C0.25 20.4142 0.585786 20.75 1 20.75H21C21.4142 20.75 21.75 20.4142 21.75 20C21.75 19.5858 21.4142 19.25 21 19.25H20V5.77195C20 4.4311 20 3.76068 19.6439 3.24676C19.2877 2.73283 18.66 2.49743 17.4045 2.02663C14.9492 1.10591 13.7216 0.645554 12.8608 1.2421C12 1.83864 12 3.14974 12 5.77195V8.49999L12.0895 8.49999C12.9551 8.49989 13.7488 8.4998 14.3944 8.5866C15.1054 8.68218 15.8568 8.90708 16.4749 9.52513C17.0929 10.1432 17.3178 10.8946 17.4134 11.6056C17.5002 12.2512 17.5001 13.0449 17.5 13.9105L17.5 14V19.25H16V14C16 12.1144 16 11.1716 15.4142 10.5858C14.8284 10 13.8856 10 12 10H10C8.11438 10 7.17157 10 6.58579 10.5858C6 11.1716 6 12.1144 6 14V19.25H4.5V14L4.49999 13.9105C4.49989 13.0449 4.4998 12.2512 4.5866 11.6056C4.68219 10.8946 4.90708 10.1432 5.52513 9.52513C6.14317 8.90708 6.89462 8.68218 7.60558 8.5866C8.25121 8.4998 9.04487 8.49989 9.9105 8.49999L9.98252 8.49999C9.94364 7.56385 9.8183 6.98987 9.41421 6.58579C8.82843 6 7.88562 6 6 6C4.11438 6 3.17157 6 2.58579 6.58579C2 7.17157 2 8.11438 2 10V19.25H1ZM8.25 13C8.25 12.5858 8.58579 12.25 9 12.25H13C13.4142 12.25 13.75 12.5858 13.75 13C13.75 13.4142 13.4142 13.75 13 13.75H9C8.58579 13.75 8.25 13.4142 8.25 13ZM8.25 16C8.25 15.5858 8.58579 15.25 9 15.25H13C13.4142 15.25 13.75 15.5858 13.75 16C13.75 16.4142 13.4142 16.75 13 16.75H9C8.58579 16.75 8.25 16.4142 8.25 16Z" fill="#FFC95E"/>
</svg>
