<svg width="20" height="20" viewBox="0 0 20 20" fill="none" xmlns="http://www.w3.org/2000/svg">
<path d="M4.22209 2.60106C4.66665 2.30401 5.13344 2.04637 5.6171 1.82977C6.98898 1.2154 7.67491 0.908208 8.58746 1.49941C9.5 2.09062 9.5 3.06042 9.5 5.00002V6.50002C9.5 8.38563 9.5 9.32844 10.0858 9.91423C10.6716 10.5 11.6144 10.5 13.5 10.5H15C16.9396 10.5 17.9094 10.5 18.5006 11.4126C19.0918 12.3251 18.7846 13.011 18.1702 14.3829C17.9536 14.8666 17.696 15.3334 17.399 15.7779C16.3551 17.3402 14.8714 18.5578 13.1355 19.2769C11.3996 19.9959 9.48947 20.184 7.64665 19.8175C5.80383 19.4509 4.11109 18.5461 2.78249 17.2175C1.45389 15.8889 0.549104 14.1962 0.182544 12.3534C-0.184015 10.5106 0.00411606 8.60042 0.723149 6.86452C1.44218 5.12862 2.65982 3.64493 4.22209 2.60106Z" fill="#FFC95E"/>
<path d="M19.446 5.06901C18.6342 3.00831 16.9917 1.36579 14.931 0.553981C13.3895 -0.0533094 12 1.34316 12 3.00002V7.00002C12 7.5523 12.4477 8.00002 13 8.00002H17C18.6569 8.00002 20.0533 6.61055 19.446 5.06901Z" fill="#FFC95E"/>
</svg>
