<svg width="20" height="20" viewBox="0 0 20 20" fill="none" xmlns="http://www.w3.org/2000/svg">
<path d="M14.1318 7.49996L14.1318 1.66663M5.79844 12.5V18.3333M14.1318 18.3333V16.6666M5.79844 1.66663V3.33329M11.6663 12.0833C11.6663 10.7026 12.7856 9.58329 14.1663 9.58329C15.5471 9.58329 16.6663 10.7026 16.6663 12.0833C16.6663 13.464 15.5471 14.5833 14.1663 14.5833C12.7856 14.5833 11.6663 13.464 11.6663 12.0833ZM3.33301 7.91663C3.33301 9.29734 4.4523 10.4166 5.83301 10.4166C7.21372 10.4166 8.33301 9.29734 8.33301 7.91663C8.33301 6.53591 7.21372 5.41663 5.83301 5.41663C4.4523 5.41663 3.33301 6.53591 3.33301 7.91663Z" stroke="#13465B" stroke-width="1.5" stroke-linecap="round"/>
</svg>
