<svg width="17" height="17" viewBox="0 0 17 17" fill="none" xmlns="http://www.w3.org/2000/svg">
<path fill-rule="evenodd" clip-rule="evenodd" d="M3.83325 1.33325C4.10939 1.33325 4.33325 1.55711 4.33325 1.83325V7.83325C4.33325 9.10447 4.33431 10.0076 4.42642 10.6927C4.5166 11.3634 4.68571 11.7498 4.96785 12.032C5.24999 12.3141 5.63642 12.4832 6.30715 12.5734C6.99226 12.6655 7.89537 12.6666 9.16658 12.6666H15.1666C15.4427 12.6666 15.6666 12.8904 15.6666 13.1666C15.6666 13.4427 15.4427 13.6666 15.1666 13.6666H13.6666V15.1666C13.6666 15.4427 13.4427 15.6666 13.1666 15.6666C12.8904 15.6666 12.6666 15.4427 12.6666 15.1666V13.6666H9.12898C7.9038 13.6666 6.93338 13.6666 6.1739 13.5645C5.39229 13.4594 4.75966 13.238 4.26075 12.7391C3.76184 12.2402 3.54043 11.6075 3.43534 10.8259C3.33323 10.0665 3.33324 9.09604 3.33325 7.87086L3.33325 4.33325H1.83325C1.55711 4.33325 1.33325 4.10939 1.33325 3.83325C1.33325 3.55711 1.55711 3.33325 1.83325 3.33325H3.33325V1.83325C3.33325 1.55711 3.55711 1.33325 3.83325 1.33325ZM10.6927 4.42642C10.0076 4.33431 9.10447 4.33325 7.83325 4.33325H5.83325C5.55711 4.33325 5.33325 4.10939 5.33325 3.83325C5.33325 3.55711 5.55711 3.33325 5.83325 3.33325L7.87086 3.33325C9.09604 3.33324 10.0665 3.33323 10.8259 3.43534C11.6075 3.54043 12.2402 3.76184 12.7391 4.26075C13.238 4.75966 13.4594 5.39229 13.5645 6.1739C13.6666 6.93338 13.6666 7.9038 13.6666 9.12898V11.1666C13.6666 11.4427 13.4427 11.6666 13.1666 11.6666C12.8904 11.6666 12.6666 11.4427 12.6666 11.1666V9.16658C12.6666 7.89537 12.6655 6.99226 12.5734 6.30715C12.4832 5.63642 12.3141 5.24999 12.032 4.96785C11.7498 4.68571 11.3634 4.5166 10.6927 4.42642Z" fill="white"/>
</svg>
