<svg width="17" height="17" viewBox="0 0 17 17" fill="none" xmlns="http://www.w3.org/2000/svg">
<path fill-rule="evenodd" clip-rule="evenodd" d="M8.49992 2.33337C5.09416 2.33337 2.33325 5.09428 2.33325 8.50004C2.33325 11.9058 5.09416 14.6667 8.49992 14.6667C11.9057 14.6667 14.6666 11.9058 14.6666 8.50004C14.6666 5.09428 11.9057 2.33337 8.49992 2.33337ZM1.33325 8.50004C1.33325 4.542 4.54188 1.33337 8.49992 1.33337C12.458 1.33337 15.6666 4.542 15.6666 8.50004C15.6666 12.4581 12.458 15.6667 8.49992 15.6667C4.54188 15.6667 1.33325 12.4581 1.33325 8.50004ZM8.49992 4.00004C8.77606 4.00004 8.99992 4.2239 8.99992 4.50004V4.7112C10.0869 4.90582 10.9999 5.72245 10.9999 6.83337C10.9999 7.10952 10.7761 7.33337 10.4999 7.33337C10.2238 7.33337 9.99992 7.10952 9.99992 6.83337C9.99992 6.27053 9.41757 5.66671 8.49992 5.66671C7.58226 5.66671 6.99992 6.27053 6.99992 6.83337C6.99992 7.39622 7.58226 8.00004 8.49992 8.00004C9.7914 8.00004 10.9999 8.8886 10.9999 10.1667C10.9999 11.2776 10.0869 12.0943 8.99992 12.2889V12.5C8.99992 12.7762 8.77606 13 8.49992 13C8.22378 13 7.99992 12.7762 7.99992 12.5V12.2889C6.91296 12.0943 5.99992 11.2776 5.99992 10.1667C5.99992 9.89056 6.22378 9.66671 6.49992 9.66671C6.77606 9.66671 6.99992 9.89056 6.99992 10.1667C6.99992 10.7296 7.58226 11.3334 8.49992 11.3334C9.41757 11.3334 9.99992 10.7296 9.99992 10.1667C9.99992 9.60386 9.41757 9.00004 8.49992 9.00004C7.20844 9.00004 5.99992 8.11148 5.99992 6.83337C5.99992 5.72245 6.91296 4.90582 7.99992 4.7112V4.50004C7.99992 4.2239 8.22378 4.00004 8.49992 4.00004Z" fill="white"/>
</svg>
