<svg width="17" height="17" viewBox="0 0 17 17" fill="none" xmlns="http://www.w3.org/2000/svg">
<path fill-rule="evenodd" clip-rule="evenodd" d="M3.33325 6.17646C3.33325 3.46847 5.68089 1.33337 8.49992 1.33337C11.3189 1.33337 13.6666 3.46847 13.6666 6.17646C13.6666 8.71723 12.0913 11.7001 9.54978 12.7862C8.88255 13.0713 8.11728 13.0713 7.45006 12.7862C4.90851 11.7001 3.33325 8.71723 3.33325 6.17646ZM8.49992 2.33337C6.16429 2.33337 4.33325 4.08721 4.33325 6.17646C4.33325 8.39535 5.73687 10.9666 7.84302 11.8666C8.25925 12.0445 8.74058 12.0445 9.15681 11.8666C11.263 10.9666 12.6666 8.39535 12.6666 6.17646C12.6666 4.08721 10.8355 2.33337 8.49992 2.33337ZM8.49992 5.66671C8.03968 5.66671 7.66658 6.0398 7.66658 6.50004C7.66658 6.96028 8.03968 7.33337 8.49992 7.33337C8.96016 7.33337 9.33325 6.96028 9.33325 6.50004C9.33325 6.0398 8.96016 5.66671 8.49992 5.66671ZM6.66658 6.50004C6.66658 5.48752 7.4874 4.66671 8.49992 4.66671C9.51244 4.66671 10.3333 5.48752 10.3333 6.50004C10.3333 7.51256 9.51244 8.33337 8.49992 8.33337C7.4874 8.33337 6.66658 7.51256 6.66658 6.50004ZM2.89686 10.4978C3.08221 10.7025 3.06653 11.0187 2.86184 11.204C2.48338 11.5467 2.33325 11.8748 2.33325 12.1667C2.33325 12.6758 2.81593 13.3033 3.99106 13.8321C5.11925 14.3398 6.71293 14.6667 8.49992 14.6667C10.2869 14.6667 11.8806 14.3398 13.0088 13.8321C14.1839 13.3033 14.6666 12.6758 14.6666 12.1667C14.6666 11.8748 14.5165 11.5467 14.138 11.204C13.9333 11.0187 13.9176 10.7025 14.103 10.4978C14.2883 10.2931 14.6045 10.2774 14.8092 10.4627C15.3179 10.9233 15.6666 11.5008 15.6666 12.1667C15.6666 13.3144 14.6569 14.187 13.4191 14.744C12.1345 15.3221 10.3948 15.6667 8.49992 15.6667C6.60501 15.6667 4.86535 15.3221 3.58069 14.744C2.34296 14.187 1.33325 13.3144 1.33325 12.1667C1.33325 11.5008 1.68195 10.9233 2.19062 10.4627C2.39531 10.2774 2.71151 10.2931 2.89686 10.4978Z" fill="white"/>
</svg>
