<svg width="17" height="17" viewBox="0 0 17 17" fill="none" xmlns="http://www.w3.org/2000/svg">
<path d="M7.99992 12.5C7.99992 12.7762 8.22378 13 8.49992 13C8.77606 13 8.99992 12.7762 8.99992 12.5V10.5C8.99992 10.2239 8.77606 10 8.49992 10C8.22378 10 7.99992 10.2239 7.99992 10.5V12.5Z" fill="white"/>
<path fill-rule="evenodd" clip-rule="evenodd" d="M8.49992 1.33337C8.02784 1.33337 7.59894 1.46859 7.13362 1.69487C6.68382 1.9136 6.1642 2.2361 5.51516 2.63892L4.13744 3.49397C3.52331 3.87511 3.03155 4.18031 2.65252 4.47058C2.26002 4.77117 1.95855 5.0773 1.74079 5.47513C1.52349 5.87212 1.42563 6.29453 1.37871 6.79384C1.33324 7.27774 1.33325 7.86945 1.33325 8.61153V9.68661C1.33324 10.9559 1.33324 11.9578 1.43505 12.7411C1.5395 13.5447 1.75896 14.1934 2.25482 14.7063C2.75297 15.2216 3.38689 15.4518 4.17166 15.561C4.93224 15.6667 5.90363 15.6667 7.12782 15.6667H9.87198C11.0962 15.6667 12.0676 15.6667 12.8282 15.561C13.6129 15.4518 14.2469 15.2216 14.745 14.7063C15.2409 14.1934 15.4603 13.5447 15.5648 12.7411C15.6666 11.9578 15.6666 10.9559 15.6666 9.68661V8.61151C15.6666 7.86947 15.6666 7.27772 15.6211 6.79384C15.5742 6.29453 15.4763 5.87212 15.259 5.47513C15.0413 5.0773 14.7398 4.77117 14.3473 4.47058C13.9683 4.18031 13.4765 3.87512 12.8624 3.49398L11.4847 2.63892C10.8356 2.2361 10.316 1.9136 9.86622 1.69487C9.4009 1.46859 8.972 1.33337 8.49992 1.33337ZM6.0196 3.50279C6.69678 3.08251 7.17292 2.78773 7.57095 2.59417C7.95874 2.40559 8.23337 2.33337 8.49992 2.33337C8.76647 2.33337 9.0411 2.40559 9.42889 2.59417C9.82692 2.78773 10.3031 3.08251 10.9802 3.50278L12.3136 4.33029C12.9541 4.72784 13.4039 5.00761 13.7393 5.26451C14.0657 5.51447 14.2535 5.72075 14.3819 5.95528C14.5107 6.19064 14.5859 6.46581 14.6255 6.8874C14.6661 7.3191 14.6666 7.86392 14.6666 8.63599V9.65001C14.6666 10.964 14.6656 11.9008 14.5731 12.6122C14.4823 13.3109 14.3112 13.7163 14.0261 14.0113C13.7432 14.3039 13.358 14.4776 12.6904 14.5705C12.0067 14.6656 11.1049 14.6667 9.83325 14.6667H7.16658C5.8949 14.6667 4.99314 14.6656 4.3094 14.5705C3.64182 14.4776 3.25668 14.3039 2.97378 14.0113C2.68859 13.7163 2.51753 13.3109 2.42671 12.6122C2.33425 11.9008 2.33325 10.964 2.33325 9.65001V8.63599C2.33325 7.86392 2.33376 7.3191 2.37433 6.8874C2.41394 6.46581 2.48915 6.19064 2.61798 5.95528C2.74635 5.72075 2.93414 5.51447 3.26053 5.26451C3.59598 5.00761 4.04571 4.72784 4.68627 4.33029L6.0196 3.50279Z" fill="white"/>
</svg>
