<svg width="211" height="80" viewBox="0 0 211 80" fill="none" xmlns="http://www.w3.org/2000/svg">
<path fill-rule="evenodd" clip-rule="evenodd" d="M62.7771 8.29893C58.2513 12.8579 54.5521 16.6524 54.5792 16.7207C54.6063 16.7889 58.3326 20.5699 62.872 25.1152L71.097 33.3731V29.8243L64.7419 23.409L69.5387 18.5497L71.097 20.1331L71.0835 16.4477L64.7419 10.0324L71.097 3.61713C71.097 0.818973 71.0835 0 71.0564 0C71.0428 0 67.3165 3.72633 62.7771 8.29893ZM58.0887 16.7207L60.4871 14.2911L62.8991 11.8751L67.7094 16.7207L62.8991 21.5663L58.0887 16.7207Z" fill="white"/>
<path d="M79.6337 39.3789C79.6337 41.481 79.6744 41.8905 79.8776 42.1908C79.9996 42.3818 80.3925 42.8459 80.7448 43.2145L81.3952 43.8833V62.5149H84.7828C84.7828 49.7117 84.8235 47.5141 84.9319 47.5414C85.0132 47.555 88.482 51.0084 92.642 55.2124C99.512 62.1464 100.23 62.8425 100.433 62.6514C100.623 62.4603 100.65 61.3957 100.637 50.5443V38.6282H97.1136C97.1136 50.79 97.0729 54.3252 97.0052 54.3252C96.951 54.3252 93.0214 50.4078 88.2652 45.6168L79.6337 36.922V39.3789Z" fill="white"/>
<path d="M117.236 38.833C117.683 38.6965 118.32 38.5463 118.659 38.4781C118.997 38.4235 120.298 38.3962 121.572 38.4098C123.171 38.4371 124.119 38.519 124.688 38.6828C125.136 38.8057 125.949 39.1333 126.504 39.4199C127.127 39.7202 127.886 40.2662 129.377 41.6994L127.263 43.8424L126.518 43.2964C126.111 42.9961 125.461 42.6002 125.095 42.4091C124.716 42.2317 123.984 41.9314 123.469 41.7676C122.724 41.5356 122.195 41.4673 121.03 41.4673C119.824 41.4673 119.336 41.5219 118.523 41.7949C117.967 41.9724 117.182 42.3273 116.775 42.5866C116.369 42.8459 115.718 43.4192 115.312 43.856C114.878 44.3337 114.39 45.0708 114.065 45.7669C113.767 46.3812 113.415 47.282 113.279 47.7734C113.103 48.4286 113.035 49.1657 113.035 50.5716C113.035 52.1686 113.089 52.66 113.347 53.5745C113.523 54.1751 113.889 55.1032 114.16 55.6219C114.458 56.1952 115 56.9323 115.542 57.4782C116.07 58.0242 116.748 58.5429 117.263 58.8159C117.737 59.0479 118.523 59.3346 119.024 59.4574C119.715 59.6212 120.352 59.6622 121.572 59.6076C122.764 59.553 123.415 59.4574 124.011 59.239C124.458 59.0889 125.108 58.7886 126.125 58.2153L126.111 54.0522H121.233V50.9128H129.634V59.6485L128.781 60.3447C128.32 60.7132 127.385 61.3001 126.721 61.6277C126.043 61.969 125.136 62.3375 124.688 62.4467C124.241 62.5695 123.266 62.7197 122.52 62.8152C121.518 62.9244 120.786 62.9244 119.743 62.8152C118.957 62.7333 117.954 62.5695 117.507 62.4467C117.06 62.3238 116.206 61.9963 115.61 61.7096C115.014 61.423 114.173 60.9043 113.74 60.563C113.32 60.2082 112.737 59.6758 112.453 59.3619C112.182 59.0616 111.639 58.3109 111.274 57.6966C110.854 57.0142 110.42 56.045 110.149 55.2124C109.919 54.4617 109.661 53.4516 109.58 52.9602C109.512 52.4689 109.444 51.4042 109.444 50.5716C109.444 49.7526 109.526 48.5787 109.648 47.9782C109.756 47.3776 109.986 46.4631 110.163 45.9307C110.339 45.412 110.705 44.5521 110.976 44.0198C111.247 43.5011 111.802 42.6548 112.222 42.1498C112.629 41.6311 113.347 40.935 113.808 40.5938C114.282 40.2525 115.054 39.7611 115.542 39.5154C116.03 39.2698 116.789 38.9558 117.236 38.833Z" fill="white"/>
<path fill-rule="evenodd" clip-rule="evenodd" d="M167.507 38.6282C166.816 38.7784 165.814 39.1333 165.204 39.4199C164.608 39.7202 163.74 40.2389 163.28 40.5801C162.805 40.935 162.06 41.6857 161.599 42.2727C161.139 42.8596 160.529 43.8287 160.244 44.4293C159.96 45.0299 159.567 46.1082 159.377 46.818C159.133 47.7325 158.998 48.6197 158.944 49.8209C158.889 50.8992 158.93 51.9502 159.025 52.6873C159.12 53.3288 159.35 54.3389 159.54 54.9394C159.729 55.54 160.163 56.591 160.502 57.2599C161.003 58.2426 161.369 58.734 162.345 59.7304C163.402 60.7951 163.767 61.0681 164.865 61.6004C165.57 61.9417 166.518 62.3238 166.965 62.433C167.413 62.5422 168.32 62.706 168.998 62.8016C169.73 62.8971 170.732 62.9244 171.505 62.8698C172.209 62.8152 173.293 62.6514 173.903 62.5013C174.526 62.3648 175.407 62.0645 175.868 61.8598C176.342 61.6414 177.087 61.2182 177.535 60.9179C177.982 60.604 178.659 60.0307 179.039 59.6212C179.418 59.2254 179.919 58.6248 180.136 58.2836C180.367 57.9423 180.732 57.3008 180.949 56.8504C181.18 56.3999 181.478 55.6356 181.64 55.1442C181.789 54.6528 181.993 53.9157 182.101 53.5062C182.209 53.0285 182.277 51.9502 182.264 50.5033C182.25 48.5514 182.209 48.0874 181.911 46.9544C181.722 46.2447 181.315 45.1391 181.017 44.4975C180.705 43.856 180.136 42.9142 179.743 42.3955C179.35 41.8768 178.659 41.1397 178.212 40.7849C177.765 40.4163 176.844 39.843 176.18 39.5018C175.38 39.106 174.513 38.8057 173.673 38.6282C172.738 38.4371 171.884 38.3552 170.556 38.3689C169.296 38.3689 168.347 38.4508 167.507 38.6282ZM167.629 41.9041C168.076 41.754 168.849 41.5629 169.323 41.4946C169.811 41.4264 170.637 41.3991 171.152 41.44C171.681 41.481 172.453 41.5902 172.887 41.6994C173.32 41.8086 174.052 42.0952 174.513 42.3273C175.001 42.5729 175.705 43.1053 176.18 43.583C176.762 44.1699 177.182 44.7705 177.575 45.5758C177.887 46.2174 178.266 47.2274 178.429 47.828C178.646 48.6606 178.713 49.3295 178.727 50.5579C178.727 51.6908 178.659 52.4825 178.497 53.0831C178.361 53.5745 178.104 54.3798 177.914 54.8575C177.724 55.3489 177.345 56.086 177.074 56.4955C176.803 56.8913 176.247 57.5328 175.827 57.915C175.421 58.2836 174.716 58.7613 174.269 58.9797C173.822 59.1981 172.995 59.4574 172.413 59.5666C171.83 59.6895 170.976 59.7714 170.516 59.7714C170.055 59.7714 169.242 59.6758 168.713 59.5666C168.198 59.4574 167.399 59.1844 166.952 58.9797C166.505 58.7613 165.881 58.3791 165.57 58.1198C165.258 57.8741 164.743 57.3281 164.431 56.905C164.12 56.4955 163.673 55.7311 163.429 55.1988C163.185 54.6801 162.873 53.8202 162.738 53.2878C162.548 52.5781 162.494 51.8819 162.494 50.4897C162.507 48.8927 162.561 48.4968 162.873 47.4185C163.076 46.7497 163.442 45.8352 163.686 45.3848C163.917 44.9343 164.418 44.2382 164.784 43.8287C165.163 43.4192 165.773 42.8869 166.139 42.6412C166.518 42.4091 167.182 42.0679 167.629 41.9041Z" fill="white"/>
<path d="M0.5 62.5149V38.6282H16.0828V41.7676H3.88757V49.2749H13.3728V52.2778H3.88757V59.512H16.0828V62.5149H0.5Z" fill="white"/>
<path d="M24.8905 62.5149H37.4923V59.512H28.4136V38.6282H24.8905V62.5149Z" fill="white"/>
<path d="M46.3 62.5149V38.6282H49.8231V59.512H58.9695L58.8747 60.2218C58.8069 60.6176 58.7663 61.3001 58.7663 62.5149H46.3Z" fill="white"/>
<path d="M67.7094 62.5149H71.097V38.6282H67.7094V62.5149Z" fill="white"/>
<path d="M136.274 41.7676V38.6282H153.618V41.7676H146.708V62.5149H143.185V41.7676H136.274Z" fill="white"/>
<path d="M206.871 38.6282V54.5299C194.947 42.5456 191.41 39.0923 191.315 39.1196C191.193 39.1606 191.153 41.6311 191.153 50.8446V62.5149H194.676V47.2957C206.6 59.28 210.137 62.7333 210.218 62.706C210.353 62.6651 210.394 60.1263 210.394 50.6398V38.6282H206.871Z" fill="white"/>
<path fill-rule="evenodd" clip-rule="evenodd" d="M110.935 71.7147C111.192 71.5919 111.653 71.4417 111.951 71.3871C112.249 71.3189 112.832 71.3052 113.238 71.3462C113.658 71.3735 114.35 71.5782 114.824 71.8103C115.447 72.0969 115.813 72.3836 116.152 72.8613C116.423 73.2162 116.734 73.8168 116.856 74.1989C117.005 74.6767 117.046 75.1954 117.005 75.9734C116.965 76.7787 116.856 77.2428 116.599 77.7478C116.409 78.1164 115.989 78.676 115.65 78.9763C115.298 79.2902 114.729 79.6178 114.309 79.7543C113.902 79.8908 113.238 80 112.832 80C112.425 80 111.748 79.8908 111.341 79.768C110.772 79.6042 110.42 79.3721 109.837 78.7852C109.282 78.2119 109.011 77.8161 108.835 77.2701C108.658 76.6968 108.604 76.2327 108.658 75.3592C108.699 74.39 108.78 74.0625 109.106 73.4619C109.336 73.0524 109.729 72.5473 109.986 72.329C110.244 72.1106 110.677 71.8376 110.935 71.7147ZM111.396 72.7111C111.003 72.9295 110.528 73.38 110.244 73.7622C109.837 74.3491 109.77 74.5538 109.729 75.4001C109.688 75.9734 109.742 76.5876 109.851 76.9016C109.946 77.2018 110.217 77.6659 110.447 77.9116C110.677 78.171 111.097 78.4986 111.396 78.6623C111.789 78.8534 112.209 78.9353 112.818 78.9353C113.442 78.9353 113.862 78.8534 114.241 78.6623C114.539 78.5122 114.986 78.1437 115.23 77.8434C115.474 77.5567 115.732 77.1063 115.813 76.8333C115.881 76.574 115.935 75.987 115.948 75.5366C115.948 74.9087 115.867 74.5538 115.569 73.9669C115.285 73.4209 115.014 73.1206 114.526 72.8067C113.997 72.4928 113.672 72.3972 112.967 72.3563C112.195 72.3153 111.992 72.3563 111.396 72.7111Z" fill="white"/>
<path d="M207.345 71.3735C207.115 71.4281 206.735 71.5919 206.478 71.742C206.221 71.8922 205.895 72.1652 205.76 72.3563C205.624 72.5337 205.462 72.9432 205.421 73.2435C205.38 73.5438 205.38 74.0079 205.435 74.2945C205.475 74.6084 205.679 74.977 205.95 75.25C206.261 75.5639 206.749 75.8232 207.548 76.0962C208.28 76.3419 208.836 76.6286 209.066 76.8743C209.283 77.0927 209.445 77.4066 209.445 77.5704C209.445 77.7342 209.324 78.0754 209.174 78.3211C208.971 78.6487 208.741 78.7988 208.321 78.908C207.914 79.0172 207.616 79.0172 207.237 78.908C206.966 78.8261 206.586 78.5804 206.397 78.3621L206.058 77.9526C205.326 78.3621 205.109 78.5395 205.096 78.5941C205.096 78.6487 205.34 78.9217 205.638 79.2083C205.95 79.495 206.424 79.7816 206.695 79.8499C206.979 79.9318 207.508 79.9864 207.887 79.9864C208.253 79.9864 208.809 79.8772 209.107 79.7407C209.405 79.6042 209.784 79.3175 209.96 79.0991C210.123 78.8807 210.34 78.4849 210.408 78.2256C210.489 77.9526 210.53 77.5021 210.475 77.2018C210.435 76.9016 210.272 76.4784 210.123 76.2737C209.974 76.0689 209.622 75.7823 209.337 75.6458C209.066 75.5093 208.429 75.2636 207.914 75.0998C207.291 74.8951 206.925 74.6903 206.735 74.431C206.573 74.2262 206.451 73.885 206.464 73.6803C206.464 73.4755 206.519 73.1752 206.6 73.0387C206.668 72.8886 206.912 72.6702 207.142 72.561C207.359 72.4381 207.779 72.3426 208.05 72.3426C208.334 72.3426 208.714 72.4518 208.903 72.5747C209.093 72.7111 209.296 72.9022 209.378 73.0114C209.486 73.1752 209.581 73.1616 209.96 72.8749C210.204 72.6975 210.394 72.5201 210.394 72.4928C210.394 72.4518 210.231 72.2471 210.028 72.0423C209.811 71.8376 209.337 71.5782 208.971 71.4554C208.592 71.3462 208.172 71.2643 208.023 71.2643C207.874 71.2779 207.562 71.3325 207.345 71.3735Z" fill="white"/>
<path fill-rule="evenodd" clip-rule="evenodd" d="M81.2597 79.8635V71.5373H82.7774C83.6175 71.5373 84.5389 71.5919 84.8099 71.6738C85.0945 71.742 85.5552 72.015 85.8262 72.2744C86.3005 72.6975 86.3411 72.8067 86.3818 73.5984C86.4224 74.3218 86.3818 74.5402 86.1107 74.9497C85.9346 75.209 85.5281 75.5639 85.1893 75.7277C84.7015 75.9734 84.3492 76.0416 82.3438 76.0416V79.8635H81.2597ZM82.3573 73.9123C82.3438 73.3254 82.3573 72.7521 82.398 72.6565C82.4386 72.5337 82.7096 72.4791 83.1839 72.4791C83.5768 72.4791 84.1189 72.5337 84.4034 72.6156C84.688 72.6838 84.9996 72.8886 85.1216 73.0524C85.2435 73.2298 85.3113 73.5847 85.2842 73.8987C85.2571 74.2945 85.1487 74.4992 84.8641 74.7176C84.5525 74.9497 84.2815 74.9906 82.398 74.9906L82.3573 73.9123Z" fill="white"/>
<path fill-rule="evenodd" clip-rule="evenodd" d="M95.081 79.8635H96.1651V76.0416L97.3033 76.1099L99.4849 79.8499C100.542 79.8499 100.623 79.8226 100.555 79.6178C100.515 79.4813 100.027 78.6214 99.4713 77.7069C98.9158 76.7924 98.4822 76.0143 98.4957 76.0007C98.501 75.998 98.5159 75.9898 98.5389 75.977L98.5392 75.9768C98.6354 75.9234 98.8732 75.7914 99.1461 75.6594C99.4849 75.4957 99.8778 75.1544 100.027 74.9087C100.189 74.6221 100.284 74.2126 100.284 73.7895C100.284 73.3527 100.189 72.9295 100.027 72.6292C99.8778 72.3836 99.512 72.0423 99.2139 71.8785C98.7667 71.6465 98.3738 71.5919 96.8832 71.5509L95.1081 71.51L95.081 79.8635ZM96.1515 74.9224C98.3331 74.9224 98.4957 74.8951 98.8345 74.5948C99.1055 74.3627 99.2003 74.1443 99.2003 73.7895C99.2003 73.5028 99.0919 73.2025 98.9293 73.0251C98.7803 72.8613 98.4551 72.6702 98.1841 72.602C97.9266 72.5337 97.371 72.4791 96.9374 72.4791L96.1515 72.4655V74.9224Z" fill="white"/>
<path fill-rule="evenodd" clip-rule="evenodd" d="M125.745 75.8369C125.745 73.653 125.759 71.7966 125.786 71.6874C125.84 71.5509 126.22 71.5236 127.575 71.5509C128.97 71.5919 129.39 71.6465 129.824 71.8785C130.109 72.0287 130.474 72.3563 130.623 72.6292C130.813 72.9432 130.908 73.3254 130.908 73.7895C130.908 74.2399 130.813 74.6221 130.623 74.9497C130.461 75.209 130.122 75.5366 129.878 75.6867C129.539 75.8915 129.133 75.9597 126.924 76.0416L126.897 77.5021C126.884 78.3075 126.856 79.0991 126.843 79.2493C126.841 79.2758 126.838 79.3036 126.835 79.3319C126.832 79.3603 126.828 79.3891 126.825 79.4178C126.814 79.5226 126.802 79.6243 126.802 79.6861C126.789 79.7953 126.613 79.8499 125.772 79.7953L125.745 75.8369ZM126.762 73.6666C126.735 73.1616 126.762 72.6838 126.816 72.602C126.884 72.5337 127.304 72.4791 127.764 72.4791C128.293 72.4791 128.781 72.561 129.079 72.7111C129.35 72.8476 129.634 73.1206 129.729 73.3254C129.838 73.5711 129.851 73.8304 129.783 74.0761C129.716 74.2808 129.499 74.5675 129.296 74.7176C128.997 74.9497 128.74 74.9906 127.954 74.9633C127.331 74.9497 126.951 74.8814 126.897 74.7586C126.843 74.663 126.789 74.1717 126.762 73.6666Z" fill="white"/>
<path d="M139.526 79.8635H144.946V78.7715H140.61V76.0416H144.404V75.0862L140.678 75.0179V72.561L144.675 72.4928V71.5373H139.526V79.8635Z" fill="white"/>
<path fill-rule="evenodd" clip-rule="evenodd" d="M153.51 78.8398C153.483 78.3075 153.51 76.4375 153.564 74.6903L153.673 71.51L155.448 71.5509C156.925 71.5919 157.29 71.6465 157.683 71.8785C157.941 72.0287 158.293 72.3699 158.469 72.6292C158.686 72.9568 158.767 73.2981 158.767 73.7895C158.767 74.2672 158.686 74.6084 158.469 74.9497C158.293 75.209 157.9 75.5366 157.575 75.7004C157.263 75.8505 157.006 76.0143 157.006 76.0689C157.006 76.1235 157.494 76.9698 158.09 77.9526C158.686 78.9217 159.133 79.7543 159.079 79.7953C159.038 79.8226 158.767 79.8635 158.51 79.8635C158.022 79.8635 158.009 79.8499 155.719 76.028L154.702 76.0416L154.635 79.7953H153.551L153.51 78.8398ZM154.675 72.5201C154.635 72.5473 154.621 73.0933 154.648 73.7485L154.689 74.9224C156.288 74.9224 156.884 74.8541 157.101 74.7449C157.304 74.6357 157.521 74.4583 157.575 74.3354C157.629 74.2126 157.67 73.9396 157.67 73.7349C157.683 73.5301 157.589 73.2162 157.467 73.0524C157.358 72.8886 157.047 72.6838 156.762 72.6156C156.477 72.5337 155.908 72.4791 155.502 72.4791C155.082 72.4791 154.702 72.4928 154.675 72.5201Z" fill="white"/>
<path d="M166.627 72.4791H169.337V79.8499H170.421V72.4791H173.131V71.5236H166.627V72.4791Z" fill="white"/>
<path d="M181.396 79.8499V71.5236H182.48L182.413 79.7816L181.396 79.8499Z" fill="white"/>
<path d="M191.64 71.6055C191.586 71.6465 191.546 73.5165 191.546 75.7686L191.559 79.8499H196.979V78.7579H192.779V76.028H196.573V75.0725L192.779 74.8678V72.4791H196.844V71.5236C192.887 71.5236 191.695 71.5646 191.64 71.6055Z" fill="white"/>
</svg>
