<svg width="35" height="35" viewBox="0 0 35 35" fill="none" xmlns="http://www.w3.org/2000/svg">
<path fill-rule="evenodd" clip-rule="evenodd" d="M8.95663 8.95728C12.9837 4.9302 14.9972 2.91667 17.4993 2.91667C20.0015 2.91667 22.015 4.9302 26.0421 8.95728C30.0691 12.9844 32.0827 14.9979 32.0827 17.5C32.0827 20.0021 30.0691 22.0156 26.0421 26.0427C22.015 30.0698 20.0014 32.0833 17.4993 32.0833C14.9972 32.0833 12.9837 30.0698 8.95663 26.0427C4.92955 22.0156 2.91602 20.0021 2.91602 17.5C2.91602 14.9979 4.92955 12.9844 8.95663 8.95728ZM20.1919 12.3271C19.7512 11.9139 19.059 11.9363 18.6459 12.3769C18.2327 12.8176 18.255 13.5098 18.6957 13.9229L20.5668 15.6771H15.5549C14.7454 15.6771 13.5452 15.8963 12.5124 16.5934C11.4211 17.3301 10.5723 18.5712 10.5723 20.4167C10.5723 21.0207 11.062 21.5104 11.666 21.5104C12.2701 21.5104 12.7598 21.0207 12.7598 20.4167C12.7598 19.3455 13.2072 18.7637 13.7363 18.4066C14.3238 18.01 15.0681 17.8646 15.5549 17.8646H20.5668L18.6957 19.6187C18.255 20.0319 18.2327 20.724 18.6459 21.1647C19.059 21.6054 19.7512 21.6277 20.1919 21.2146L24.0807 17.5688C24.3013 17.362 24.4264 17.0732 24.4264 16.7708C24.4264 16.4685 24.3013 16.1797 24.0807 15.9729L20.1919 12.3271Z" fill="black"/>
</svg>
