<svg width="22" height="48" viewBox="0 0 22 48" fill="none" xmlns="http://www.w3.org/2000/svg">
<path fill-rule="evenodd" clip-rule="evenodd" d="M2.64877 0.181132C2.49021 0.32345 2.43947 0.426954 2.39507 0.743935C2.36336 0.957412 2.33799 10.4733 2.34433 22.1563V43.1806C0.492293 43.2453 0.435209 43.2517 0.276645 43.407C0.187849 43.4976 0.0800247 43.6722 0.0483118 43.7951C0.0102562 43.931 -0.00877151 44.6943 0.00391366 45.7358C0.0229414 47.3272 0.029284 47.4631 0.149793 47.6377C0.219562 47.7412 0.352756 47.8641 0.447895 47.9094C0.593774 47.9871 2.35067 48 11.0083 48C21.2769 48 21.3975 48 21.6004 47.8706C21.7146 47.7995 21.8541 47.6377 21.9049 47.5148C21.981 47.3337 22 46.9585 22 45.6065C22 44.3579 21.981 43.8728 21.9175 43.7175C21.8668 43.6011 21.7463 43.4394 21.6448 43.3553C21.4736 43.2194 21.3975 43.2065 20.649 43.2129C20.205 43.2129 19.8435 43.2065 19.8435 43.2C19.8435 43.1871 19.926 42.773 20.0275 42.2749C20.1289 41.7768 20.2621 41.1687 20.3192 40.9164C20.3763 40.6641 20.5031 40.0431 20.6046 39.5256C20.7061 39.0081 20.8456 38.096 20.9154 37.4879C20.9915 36.8798 21.074 36.0388 21.112 35.6119C21.1437 35.1849 21.1755 34.111 21.1755 33.2183C21.1755 32.3062 21.1374 31.1482 21.0803 30.566C21.0296 29.9968 20.9408 29.1946 20.89 28.7871C20.833 28.3795 20.7125 27.6938 20.63 27.2668C20.5412 26.8399 20.3446 25.9795 20.1924 25.3585C20.0401 24.7375 19.7674 23.7606 19.5898 23.1914C19.4122 22.6221 19.1585 21.8782 19.038 21.5418C18.9112 21.2054 18.6448 20.5197 18.4355 20.0216C18.2262 19.5234 17.7949 18.5919 17.4714 17.9515C17.1479 17.3111 16.7483 16.5542 16.5771 16.2695C16.4122 15.9849 16.0316 15.3703 15.7335 14.9111C15.4418 14.4453 14.9661 13.766 14.687 13.3908C14.4079 13.0156 13.9576 12.4464 13.6976 12.1294C13.4375 11.8124 12.7462 11.062 12.169 10.4733C11.5918 9.88463 10.9068 9.21186 10.6468 8.97898C10.3867 8.75256 9.87298 8.32561 9.50511 8.04097C9.13724 7.75633 8.54103 7.32938 8.17316 7.09003C7.80529 6.85067 7.01881 6.41078 6.42895 6.11321C5.83909 5.80916 5.03993 5.44043 4.65303 5.28517L3.95534 5.00054C3.9046 1.25499 3.86655 0.439892 3.82215 0.355795C3.78409 0.284636 3.67627 0.174663 3.58113 0.116442C3.48599 0.045283 3.29572 0 3.13081 0C2.91516 0 2.80099 0.038814 2.64877 0.181132ZM6.86025 15.1828C6.78414 15.1957 6.62557 15.3121 6.51141 15.435L6.3021 15.6615V43.1806L7.85603 43.2129V40.8518C9.06112 40.7741 10.596 40.7547 12.0421 40.7547C13.4882 40.7547 14.687 40.7677 14.706 40.7806C14.7251 40.8 14.6426 41.2916 14.5348 41.8674C14.4206 42.4496 14.3255 42.9865 14.3255 43.0706C14.3255 43.2129 14.3318 43.2129 15.0993 43.2L15.8794 43.1806C16.6342 39.3704 16.9323 37.7402 17.0211 37.0997C17.1226 36.3946 17.205 35.476 17.2304 34.7709C17.2557 34.1305 17.2557 33.0954 17.2304 32.4744C17.2113 31.8534 17.1416 30.8895 17.0845 30.3396C17.0274 29.7898 16.9259 28.9747 16.8562 28.5283C16.7864 28.0819 16.6278 27.2992 16.5073 26.7817C16.3805 26.2642 16.1585 25.4232 16.0063 24.9057C15.854 24.3881 15.5306 23.4437 15.2895 22.8032C15.0485 22.1628 14.6933 21.2895 14.5031 20.8625C14.3128 20.4356 14.0845 19.9569 13.9957 19.7952C13.9132 19.6334 13.6595 19.1677 13.4375 18.7601C13.2092 18.3526 12.7335 17.5633 12.372 17.0135C12.0041 16.4636 11.6045 15.8749 11.4777 15.7132C11.3508 15.5515 11.1795 15.3574 11.0908 15.2927C10.9449 15.1763 10.7927 15.1698 8.96599 15.1633C7.8814 15.1569 6.93636 15.1633 6.86025 15.1828ZM1.57687 46.3828H20.4144V44.7655H1.57687V46.3828Z" fill="#010101"/>
<path d="M7.85603 19.1482V16.7547H10.2662L10.5136 17.0911C10.6468 17.2787 10.9258 17.6992 11.1351 18.0162C11.3445 18.3332 11.5918 18.7213 11.8519 19.1482H7.85603Z" fill="#010101"/>
<path d="M7.84335 22.0075C7.83701 21.3736 7.85603 20.8302 7.88775 20.8108C7.91946 20.7849 9.01038 20.7655 12.7081 20.759L13.0062 21.393C13.1711 21.7423 13.3487 22.1434 13.4121 22.2857L13.4178 22.2999C13.4759 22.4446 13.5767 22.6959 13.7546 23.159H7.85603L7.84335 22.0075Z" fill="#010101"/>
<path d="M7.85603 27.1698V24.7763L14.3508 24.8086L14.6489 25.876C14.8139 26.4647 14.9534 26.9951 14.9534 27.0598C14.9597 27.1633 14.7504 27.1698 7.85603 27.1698Z" fill="#010101"/>
<path d="M7.85603 31.1806V28.7871H11.5664C13.6088 28.7871 15.2895 28.8065 15.3022 28.8323C15.3213 28.8647 15.3783 29.2334 15.4291 29.6604C15.4798 30.0873 15.5369 30.6049 15.594 31.1806H7.85603Z" fill="#010101"/>
<path d="M7.85603 35.1914V32.7978H15.7208V33.49C15.7208 33.8782 15.7018 34.4151 15.6257 35.1914H7.85603Z" fill="#010101"/>
<path d="M7.84335 38.0183C7.84335 37.365 7.86238 36.8086 7.88775 36.7892C7.91946 36.7633 9.64464 36.7439 15.4988 36.7439L15.4545 37.0803C15.4291 37.2679 15.3339 37.7984 15.2388 38.2641C15.15 38.7234 15.0676 39.1245 15.0485 39.1504C15.0358 39.1827 13.4121 39.2022 7.85603 39.2022L7.84335 38.0183Z" fill="#010101"/>
</svg>
