<svg width="26" height="27" viewBox="0 0 26 27" fill="none" xmlns="http://www.w3.org/2000/svg">
<path fill-rule="evenodd" clip-rule="evenodd" d="M13.065 0.562499H12.935C11.8119 0.562464 10.8754 0.562435 10.1319 0.662392C9.34716 0.767898 8.63866 0.999986 8.06932 1.56932C7.49999 2.13866 7.2679 2.84716 7.16239 3.6319C7.06243 4.37537 7.06246 5.31189 7.0625 6.43498V6.53214C4.53603 6.61481 3.01889 6.91004 1.96447 7.96447C0.5 9.42893 0.5 11.786 0.5 16.5C0.5 21.214 0.5 23.5711 1.96447 25.0355C3.42893 26.5 5.78595 26.5 10.5 26.5H15.5C20.214 26.5 22.5711 26.5 24.0355 25.0355C25.5 23.5711 25.5 21.214 25.5 16.5C25.5 11.786 25.5 9.42893 24.0355 7.96447C22.9811 6.91004 21.464 6.61481 18.9375 6.53214V6.43501C18.9375 5.31192 18.9376 4.37537 18.8376 3.6319C18.7321 2.84716 18.5 2.13866 17.9307 1.56932C17.3613 0.999986 16.6528 0.767898 15.8681 0.662392C15.1246 0.562435 14.1881 0.562464 13.065 0.562499ZM17.0625 6.50236V6.5C17.0625 5.29499 17.0605 4.48554 16.9793 3.88174C16.9018 3.30492 16.7678 3.05804 16.6049 2.89515C16.442 2.73225 16.1951 2.59822 15.6183 2.52067C15.0145 2.43949 14.205 2.4375 13 2.4375C11.795 2.4375 10.9855 2.43949 10.3817 2.52067C9.80492 2.59822 9.55804 2.73225 9.39515 2.89515C9.23225 3.05804 9.09822 3.30492 9.02067 3.88174C8.93949 4.48554 8.9375 5.29499 8.9375 6.5V6.50236C9.42754 6.5 9.94759 6.5 10.5 6.5H15.5C16.0524 6.5 16.5725 6.5 17.0625 6.50236ZM19.25 10.25C19.25 10.9404 18.6904 11.5 18 11.5C17.3096 11.5 16.75 10.9404 16.75 10.25C16.75 9.55964 17.3096 9 18 9C18.6904 9 19.25 9.55964 19.25 10.25ZM8 11.5C8.69036 11.5 9.25 10.9404 9.25 10.25C9.25 9.55964 8.69036 9 8 9C7.30964 9 6.75 9.55964 6.75 10.25C6.75 10.9404 7.30964 11.5 8 11.5Z" fill="black"/>
</svg>
