<svg width="40" height="34" viewBox="0 0 40 34" fill="none" xmlns="http://www.w3.org/2000/svg">
<path d="M17.7358 0.104985C18.1348 0.07607 18.5743 0.0355896 18.7189 0.0298066C18.8635 0.0182408 19.3608 0.00667499 19.835 0.000892079C20.3034 -0.00489083 21.0841 0.0182408 21.5641 0.0471554C22.0498 0.0818529 22.8363 0.157031 23.3163 0.220643C23.7905 0.284255 24.5885 0.417262 25.0801 0.515571C25.5716 0.613881 26.3292 0.793151 26.7571 0.914592C27.1851 1.04182 27.8501 1.24422 28.2318 1.37723C28.6134 1.51023 29.2669 1.7589 29.6775 1.93817C30.0881 2.11166 30.6085 2.34875 30.8341 2.45863C31.0596 2.57429 31.4702 2.79404 31.7593 2.95596C32.0485 3.11788 32.6441 3.48799 33.0894 3.78292C33.5347 4.07785 34.1188 4.5 34.3906 4.71397C34.6624 4.92793 35.2407 5.45996 35.6859 5.8879C36.1254 6.31583 36.7037 6.92882 36.964 7.24688C37.2242 7.56494 37.6695 8.16058 37.9471 8.57695C38.2246 8.99332 38.641 9.71619 38.8723 10.1962C39.1094 10.6704 39.4044 11.3874 39.5374 11.7865C39.6704 12.1855 39.8265 12.7175 39.8901 12.972C39.948 13.2264 40 13.5271 40 13.637C40 13.7469 39.9364 13.9666 39.8612 14.1285C39.7687 14.3078 39.6299 14.4813 39.4738 14.5912C39.2829 14.73 39.1557 14.7705 38.8781 14.7878C38.6063 14.8052 38.4733 14.782 38.294 14.6895C38.1668 14.6259 37.9818 14.4871 37.8892 14.3888C37.7504 14.2442 37.6753 14.0534 37.5307 13.4982C37.4324 13.1165 37.2531 12.5382 37.1375 12.2202C37.016 11.9021 36.7905 11.3817 36.6286 11.0636C36.4609 10.7455 36.1775 10.2482 35.9924 9.96485C35.8016 9.68149 35.4488 9.19572 35.2118 8.89501C34.9689 8.5943 34.4947 8.07384 34.1593 7.73843C33.8238 7.40302 33.3034 6.93461 33.0027 6.68594C32.702 6.44306 32.1295 6.02669 31.7304 5.76067C31.3314 5.50044 30.7069 5.11877 30.3425 4.92215C29.9782 4.72553 29.3247 4.40747 28.8968 4.22242C28.4689 4.03158 27.7749 3.75979 27.3643 3.61521C26.9537 3.47642 26.1962 3.25089 25.6873 3.11788C25.1784 2.99066 24.3746 2.81717 23.8946 2.73621C23.4204 2.65525 22.6223 2.55116 22.1308 2.50489C21.6392 2.45863 20.6619 2.41815 19.9622 2.41815C19.2625 2.41815 18.3141 2.45863 17.8514 2.50489C17.3888 2.54537 16.7411 2.62633 16.4057 2.67838C16.0703 2.73043 15.5151 2.8403 15.1624 2.91548C14.8096 2.99066 14.2024 3.1468 13.8034 3.25667C13.4044 3.36655 12.8319 3.54582 12.5312 3.64991C12.2304 3.75979 11.7447 3.94484 11.4613 4.06628C11.178 4.18194 10.5361 4.48265 10.0445 4.73132C9.55296 4.98576 8.83588 5.39057 8.45421 5.64502C8.07253 5.89368 7.51159 6.2927 7.21088 6.5298C6.91017 6.76112 6.35501 7.25267 5.97334 7.62277C5.59745 7.9871 5.07698 8.54804 4.82254 8.8661C4.56809 9.18416 4.20955 9.66414 4.03028 9.93594C3.85679 10.2077 3.57343 10.6877 3.41151 11.0058C3.24958 11.3238 3.02405 11.8038 2.91418 12.0756C2.81008 12.3474 2.64816 12.8274 2.56142 13.1455C2.47467 13.4635 2.38215 13.8221 2.35323 13.9377C2.31854 14.0592 2.19709 14.2673 2.07565 14.4003C1.95999 14.5276 1.77494 14.6721 1.67085 14.7184C1.57254 14.7589 1.37014 14.7936 1.22556 14.7936C1.08099 14.7936 0.867024 14.7531 0.745583 14.7011C0.629925 14.6548 0.444871 14.5334 0.340779 14.4293C0.219338 14.3078 0.121028 14.1343 0.0631991 13.9261C-0.0177617 13.637 -0.0177617 13.5676 0.068982 13.1744C0.115245 12.9373 0.242469 12.4804 0.334996 12.1624C0.433306 11.8443 0.606793 11.3643 0.716668 11.0925C0.832327 10.8207 1.05208 10.3407 1.214 10.0227C1.37014 9.70462 1.64772 9.20729 1.82699 8.92393C2.00048 8.64056 2.37058 8.10275 2.64816 7.73843C2.91996 7.37411 3.45777 6.74955 3.83366 6.35631C4.21533 5.96308 4.75892 5.44261 5.04229 5.19395C5.32565 4.95107 5.84033 4.54626 6.18152 4.29181C6.52271 4.04315 7.06631 3.66726 7.39593 3.46486C7.72556 3.25667 8.37903 2.88657 8.85901 2.64368C9.33321 2.39502 10.0387 2.05961 10.4204 1.89769C10.8021 1.72998 11.5307 1.45819 12.0396 1.29048C12.5485 1.11699 13.2135 0.914592 13.5143 0.833632C13.815 0.758454 14.3875 0.625447 14.7865 0.538703C15.1855 0.457742 15.8506 0.342084 16.2611 0.278472C16.6717 0.220643 17.3368 0.139682 17.7358 0.104985Z" fill="#030303"/>
<path d="M16.4288 6.17704C16.4693 6.06139 16.5734 5.9226 16.6949 5.84163C16.8452 5.74333 16.9435 5.71441 17.0707 5.74333C17.1633 5.76067 17.3252 5.83007 17.4177 5.89946C17.5103 5.96308 17.7589 6.21174 17.9671 6.44306C18.1753 6.68016 18.5107 7.12544 18.7189 7.43772C18.9271 7.75 19.1468 8.09697 19.3203 8.40347L19.3608 8.05649C19.3955 7.76734 19.4302 7.6806 19.5805 7.55338C19.702 7.4435 19.8234 7.39146 19.9622 7.39146C20.0721 7.39146 20.2224 7.42037 20.2918 7.44928C20.367 7.48398 20.4711 7.58807 20.5231 7.6806C20.581 7.77891 20.6272 7.95818 20.6272 8.08541C20.6272 8.21263 20.6504 8.31672 20.6851 8.31672C20.7198 8.31672 20.8586 8.11432 21.0031 7.87144C21.1477 7.62277 21.4021 7.2411 21.5699 7.01557C21.7376 6.79582 22.0383 6.43149 22.2465 6.21752C22.4836 5.96886 22.6975 5.80115 22.8247 5.76067C22.9925 5.70863 23.0676 5.72019 23.2527 5.80694C23.3799 5.87055 23.5129 5.99199 23.565 6.0903C23.617 6.20018 23.6344 6.33897 23.6112 6.46619C23.5881 6.60498 23.4782 6.77268 23.27 6.98665C23.1023 7.16014 22.871 7.42037 22.7554 7.56494C22.6455 7.70952 22.4257 8.02179 22.2696 8.25889C22.1134 8.49599 21.8474 8.95863 21.6797 9.28825C21.5178 9.61209 21.3906 9.89546 21.4079 9.92437C21.4195 9.9475 21.6739 9.73353 21.9689 9.45017C22.2638 9.16103 22.7785 8.70996 23.1139 8.44395C23.4493 8.18371 23.9929 7.77891 24.3283 7.54759C24.6637 7.32206 25.1726 6.99822 25.456 6.83051C25.8376 6.60498 26.0343 6.52402 26.1904 6.52402C26.3408 6.52402 26.468 6.57028 26.5836 6.66859C26.6993 6.76112 26.7687 6.88834 26.7918 7.03291C26.815 7.1717 26.7976 7.30471 26.7398 7.42037C26.6877 7.52446 26.5142 7.67482 26.3176 7.79626C26.1268 7.90614 25.7046 8.17215 25.3692 8.39768C25.0338 8.61743 24.5249 8.97019 24.2416 9.18416C23.9582 9.39813 23.4724 9.79715 23.1717 10.0632C22.871 10.335 22.472 10.7108 22.2869 10.9075C22.1077 11.1041 21.9689 11.2776 21.9862 11.2949C22.0036 11.3123 22.2407 11.185 22.5183 11.0116C22.8016 10.8381 23.3105 10.5547 23.6633 10.3812C24.016 10.2077 24.5481 9.97063 24.8488 9.86076C25.1495 9.7451 25.6352 9.58896 25.9186 9.50222C26.202 9.42126 26.7109 9.3056 27.0463 9.24199C27.3817 9.17838 27.9253 9.1032 28.2607 9.0685C28.5961 9.0338 29.1455 9.01067 29.4867 9.01067C29.9666 9.01067 30.1575 9.0338 30.3194 9.11476C30.4408 9.17259 30.5565 9.28825 30.6085 9.40391C30.6548 9.50222 30.6895 9.62944 30.6895 9.67571C30.6895 9.72197 30.649 9.84341 30.6028 9.93594C30.5565 10.0285 30.4582 10.1499 30.383 10.1962C30.2905 10.2598 30.0939 10.2829 29.6197 10.2829C29.2727 10.2829 28.7118 10.3118 28.3763 10.3407C28.0409 10.3754 27.4511 10.468 27.0578 10.5431C26.6704 10.6241 26.0747 10.7802 25.7278 10.8959C25.3866 11.0058 24.7447 11.2776 24.2994 11.4973C23.8541 11.7171 23.27 12.0409 22.9982 12.226C22.7264 12.4052 22.3563 12.677 22.1655 12.8216C21.9804 12.9662 21.8532 13.0934 21.8763 13.105C21.9053 13.1108 22.0845 13.0529 22.2754 12.9662C22.4662 12.8794 22.8941 12.7117 23.2296 12.5845C23.565 12.4631 24.1606 12.2722 24.5596 12.1624C24.9586 12.0467 25.6063 11.8963 26.0054 11.8212C26.4044 11.7402 27.0405 11.6477 27.4222 11.6072C27.8559 11.5667 28.5556 11.5494 29.3016 11.5725C29.9551 11.5899 30.7473 11.6477 31.0654 11.6939C31.3835 11.746 31.9328 11.8501 32.2798 11.931C32.8176 12.0525 32.9391 12.0987 33.0721 12.2491C33.1877 12.3705 33.234 12.4862 33.234 12.625C33.234 12.7349 33.1993 12.8968 33.1588 12.9777C33.1241 13.0645 33.02 13.1686 32.9275 13.2091C32.8408 13.2553 32.702 13.29 32.6094 13.29C32.5227 13.29 32.3087 13.2495 32.1352 13.2033C31.9618 13.157 31.476 13.0645 31.0654 12.9893C30.4235 12.8794 30.1054 12.8621 28.8679 12.8621C27.6477 12.8621 27.3123 12.8794 26.6993 12.9835C26.3003 13.0529 25.6121 13.2033 25.1668 13.3189C24.7215 13.4346 23.9813 13.6717 23.5187 13.8452C23.0561 14.0187 22.5992 14.2153 22.3332 14.4003L22.5067 14.3656C22.5992 14.3425 23.004 14.2673 23.403 14.1864C23.8021 14.1112 24.4671 14.0187 24.8777 13.9782C25.3287 13.9377 25.9764 13.9261 26.4969 13.9493C26.9711 13.9666 27.6246 14.0245 27.9426 14.0707C28.2607 14.117 28.8448 14.2384 29.2438 14.3367C29.6428 14.435 30.2153 14.6085 30.516 14.7184C30.8167 14.8283 31.3777 15.0712 31.7593 15.2562C32.141 15.4413 32.6673 15.7246 32.9275 15.8866C33.2109 16.06 33.4537 16.2567 33.5231 16.3723C33.5868 16.4706 33.6388 16.6036 33.6388 16.6615C33.6388 16.7135 33.5925 16.8523 33.5347 16.968C33.4827 17.0836 33.3554 17.2166 33.2629 17.2687C33.1704 17.3149 33.0085 17.3381 32.9159 17.3207C32.8234 17.3092 32.5516 17.1761 32.3203 17.0258C32.0948 16.8812 31.6379 16.6268 31.3083 16.4648C30.9844 16.2971 30.4466 16.06 30.1112 15.9386C29.7758 15.8114 29.2033 15.6379 28.839 15.5454C28.4747 15.4586 27.9253 15.3487 27.6246 15.3083C27.3123 15.262 26.5952 15.2273 25.9764 15.2331C25.2247 15.2331 24.6695 15.262 24.2126 15.3314C23.8483 15.3892 23.3394 15.4875 23.085 15.5511C22.8305 15.609 22.6166 15.661 22.605 15.661C22.5992 15.661 22.5934 15.6784 22.5934 15.7073C22.5934 15.7304 22.9635 15.7651 23.4146 15.7882C23.8715 15.8114 24.5134 15.8692 24.8488 15.9213C25.1842 15.9733 25.8319 16.1063 26.2945 16.2162C26.7571 16.3318 27.4279 16.5285 27.7865 16.6499C28.1392 16.7771 28.7002 16.9911 29.024 17.1357C29.3537 17.2802 29.9088 17.552 30.2558 17.7487C30.6028 17.9453 31.1521 18.2749 31.4702 18.4889C31.7883 18.6971 32.1584 18.9746 32.2914 19.1019C32.5053 19.3043 32.54 19.3679 32.54 19.5818C32.54 19.7842 32.5053 19.8594 32.3319 20.0445C32.1352 20.2411 32.1005 20.2584 31.8808 20.2237C31.7227 20.2006 31.528 20.1023 31.2967 19.9288C31.1059 19.7842 30.7184 19.5124 30.4293 19.3332C30.1401 19.1539 29.504 18.8069 29.0125 18.5583C28.5209 18.3154 27.7518 17.9915 27.3065 17.8412C26.8612 17.6966 26.2887 17.5231 26.0343 17.4595C25.7798 17.3959 25.3345 17.3034 25.0512 17.2513C24.7678 17.1993 24.4497 17.1414 24.3572 17.1357C24.2647 17.1241 23.8078 17.0952 23.3452 17.0778C22.819 17.0605 22.5587 17.0663 22.6513 17.101C22.7322 17.1299 23.1486 17.2629 23.5765 17.3959C24.0045 17.5347 24.629 17.7602 24.9644 17.9048C25.2998 18.0436 25.7798 18.2633 26.0343 18.3906C26.2887 18.5236 26.7976 18.8127 27.1619 19.0382C27.5263 19.2638 28.0988 19.657 28.4342 19.9115C28.7638 20.1659 29.3074 20.6343 29.6312 20.9524C30.2037 21.5075 30.2269 21.5422 30.2269 21.7793C30.2269 21.9817 30.1922 22.0569 30.0187 22.242C29.8279 22.4386 29.7874 22.4559 29.5676 22.427C29.3594 22.4039 29.2496 22.3287 28.8332 21.9355C28.5614 21.681 28.1335 21.3051 27.8848 21.1027C27.6303 20.8946 27.133 20.5418 26.786 20.3105C26.4391 20.0849 25.8492 19.7438 25.4849 19.5529C25.1206 19.3621 24.5712 19.1076 24.2705 18.9862C23.9698 18.8648 23.484 18.6971 23.2006 18.6045C22.9173 18.512 22.6397 18.4368 22.5934 18.4368C22.5298 18.4368 22.5414 18.46 22.6223 18.512C22.686 18.5583 22.9346 18.6971 23.1717 18.8243C23.4088 18.9515 23.7095 19.1192 23.8368 19.1944C23.964 19.2696 24.2473 19.4604 24.4729 19.6165C24.6984 19.7727 25.057 20.0503 25.2825 20.2295C25.508 20.4146 25.936 20.8194 26.2367 21.1317C26.5432 21.4497 26.9017 21.8487 27.0405 22.0222C27.1793 22.1957 27.4222 22.5311 27.5725 22.7624C27.7923 23.0863 27.8559 23.2309 27.8559 23.4101C27.8559 23.572 27.8096 23.6935 27.7113 23.8149C27.6303 23.9075 27.4973 24.0058 27.4048 24.0231C27.3181 24.0405 27.1561 24.0289 27.0463 23.9942C26.8901 23.9479 26.7803 23.8381 26.5547 23.5142C26.3928 23.2829 26.0805 22.8723 25.855 22.6005C25.6295 22.3287 25.2362 21.9124 24.9818 21.6753C24.7331 21.4382 24.3283 21.097 24.0912 20.9177C23.8599 20.7384 23.4551 20.4608 23.2006 20.3047C22.9462 20.1428 22.5819 19.9346 22.391 19.8421C22.2002 19.7438 21.7954 19.5703 21.4947 19.4488C21.194 19.3274 20.8759 19.2059 20.7834 19.1828C20.6446 19.1366 20.6272 19.1423 20.6388 19.2522C20.6504 19.3447 20.7429 19.4083 21.0031 19.5009C21.194 19.5703 21.4658 19.7091 21.6103 19.8074C21.7549 19.9057 21.992 20.1081 22.1366 20.2642C22.2812 20.4204 22.4893 20.7384 22.7958 21.3861H23.4435C24.0565 21.3861 24.1086 21.3977 24.2705 21.5307C24.3977 21.6348 24.444 21.7273 24.444 21.8661C24.444 21.9644 24.363 22.3865 24.2589 22.7971C24.1259 23.3118 24.0276 23.5894 23.9408 23.6819C23.8136 23.8091 23.7674 23.8149 22.3332 23.8149L22.2118 23.9711C22.1481 24.0636 21.9862 24.214 21.6103 24.48V28.4702C21.6103 32.1308 21.6046 32.4835 21.512 32.7727C21.4542 32.9462 21.3154 33.189 21.2055 33.3163C21.0957 33.4435 20.8701 33.6112 20.714 33.6864C20.5058 33.7789 20.3207 33.8194 20.0489 33.8194C19.8118 33.8194 19.5863 33.7789 19.4417 33.7095C19.3145 33.6517 19.1237 33.5302 19.0138 33.4377C18.9039 33.3452 18.7478 33.1428 18.5165 32.6917L18.4818 24.48L18.3256 24.3643C18.2389 24.3065 18.077 24.1561 17.7647 23.8149H17.0418C16.5676 23.8091 16.2901 23.786 16.2264 23.7397C16.1744 23.6993 16.105 23.6183 16.0761 23.5547C16.0414 23.4911 15.9315 23.121 15.8332 22.7335C15.7349 22.3403 15.6539 21.9413 15.6539 21.8487C15.6539 21.7273 15.706 21.6348 15.8274 21.5307C15.9893 21.3977 16.0414 21.3861 16.6659 21.3861C17.25 21.3861 17.3368 21.3745 17.3657 21.2878C17.383 21.23 17.464 21.0565 17.5334 20.8946C17.6086 20.7384 17.7936 20.4608 17.9497 20.2874C18.1117 20.1139 18.3661 19.8883 18.5223 19.7842C18.6784 19.6801 18.9271 19.5587 19.0774 19.5067C19.3087 19.4315 19.355 19.3968 19.355 19.1308L18.9328 19.2811C18.7073 19.3621 18.1753 19.5934 17.7647 19.79C17.3541 19.9924 16.7527 20.3278 16.4346 20.5476C16.1166 20.7616 15.7002 21.0738 15.5094 21.2358C15.3185 21.3977 15.0467 21.6348 14.9079 21.762C14.7691 21.8892 14.4511 22.242 14.1966 22.5427C13.9422 22.8434 13.6126 23.2713 13.4622 23.4969C13.3003 23.7282 13.1152 23.9364 13.0169 23.9769C12.9186 24.0289 12.7625 24.0405 12.6295 24.0231C12.4907 24 12.3692 23.9306 12.2709 23.8149C12.1745 23.6993 12.1264 23.5701 12.1264 23.4275C12.1264 23.2713 12.19 23.1094 12.3461 22.8607C12.4675 22.6699 12.7278 22.3172 12.9186 22.0801C13.1037 21.843 13.4796 21.415 13.7514 21.1317C14.0174 20.8483 14.4974 20.4088 14.8154 20.1543C15.1335 19.8999 15.6019 19.5529 15.8563 19.391C16.1108 19.2233 16.5272 18.9746 16.7816 18.8416C17.0361 18.7028 17.3078 18.5525 17.3888 18.512C17.4698 18.4715 17.5103 18.4368 17.4756 18.4368C17.4409 18.4368 17.2385 18.4831 17.0129 18.5409C16.7874 18.6045 16.2958 18.7722 15.9142 18.9226C15.5325 19.0729 14.9195 19.3505 14.5552 19.5356C14.1909 19.7264 13.6068 20.0618 13.254 20.2931C12.9013 20.5187 12.3808 20.8946 12.0974 21.1259C11.8141 21.3572 11.363 21.7446 11.1028 21.9875C10.6691 22.3808 10.5997 22.427 10.3915 22.427C10.218 22.427 10.1139 22.3866 9.96933 22.2593C9.80741 22.109 9.78428 22.0569 9.78428 21.4902L10.2758 21.016C10.5476 20.7616 10.9929 20.3683 11.2589 20.1543C11.5307 19.9346 12.0338 19.5703 12.3866 19.3332C12.7393 19.1019 13.2598 18.7838 13.5432 18.6219C13.8265 18.4542 14.3643 18.1939 14.7287 18.0262C15.093 17.8643 15.7696 17.6099 16.2322 17.4595C16.6949 17.3034 17.1633 17.153 17.2731 17.1183C17.4582 17.0663 17.4351 17.0605 17.0418 17.0547C16.8047 17.0489 16.3363 17.0778 16.0009 17.1068C15.6655 17.1414 15.0699 17.234 14.6708 17.3149C14.2718 17.3901 13.5952 17.5578 13.1673 17.6908C12.7393 17.818 12.1379 18.032 11.8372 18.1592C11.5365 18.2865 11.0912 18.4889 10.8541 18.6103C10.617 18.7317 10.2006 18.9573 9.92885 19.1192C9.65705 19.2753 9.17707 19.5934 8.85901 19.8189C8.45421 20.1081 8.22867 20.2295 8.10723 20.2295C8.00892 20.2353 7.847 20.1717 7.73713 20.1023C7.62725 20.0271 7.51159 19.8883 7.48268 19.7958C7.45376 19.7033 7.4422 19.5356 7.46533 19.4373C7.48846 19.2927 7.58677 19.177 7.82965 18.9862C8.0147 18.8416 8.46577 18.5293 8.8301 18.298C9.19442 18.0609 9.83054 17.7024 10.2469 17.4942C10.6633 17.286 11.2994 16.9969 11.6637 16.8523C12.028 16.7135 12.6006 16.5169 12.936 16.4186C13.2714 16.3261 13.7861 16.1931 14.081 16.1237C14.3701 16.06 14.8675 15.9675 15.174 15.9213C15.4862 15.8692 16.1108 15.8114 16.5676 15.7882C17.0187 15.7651 17.3888 15.7304 17.3888 15.7015C17.3888 15.6784 17.2789 15.6321 17.1401 15.5974C17.0071 15.5627 16.6486 15.4818 16.3479 15.4239C16.0472 15.3661 15.3937 15.2851 14.9022 15.2447C14.2024 15.1926 13.815 15.1926 13.1384 15.2447C12.6584 15.2793 12.0627 15.3545 11.8083 15.4008C11.5538 15.4471 11.1086 15.5569 10.8252 15.6379C10.5418 15.7131 10.0561 15.875 9.75536 15.9906C9.45465 16.1005 8.95732 16.3203 8.65661 16.4764C8.3559 16.6326 7.89905 16.887 7.6446 17.0489C7.23979 17.3092 7.15305 17.3438 6.95065 17.3149C6.78873 17.2976 6.67307 17.234 6.55741 17.1125C6.43597 16.9737 6.40127 16.8754 6.40127 16.6904C6.40127 16.5458 6.44754 16.3897 6.50536 16.3145C6.55741 16.2509 6.78873 16.0774 7.00848 15.9328C7.22823 15.794 7.72556 15.5164 8.10723 15.3314C8.4889 15.1406 9.04985 14.8861 9.35056 14.7762C9.65127 14.6606 10.137 14.4987 10.4204 14.4177C10.7038 14.3367 11.2127 14.2211 11.5481 14.1575C11.8835 14.0939 12.4386 14.0187 12.7914 13.984C13.1441 13.9551 13.6877 13.9261 14.0058 13.9261C14.3239 13.9261 14.8848 13.9551 15.2491 13.9898C15.6135 14.0187 16.3016 14.1228 16.7816 14.2211C17.2558 14.3136 17.6548 14.383 17.6664 14.3772C17.6722 14.3656 17.4409 14.25 17.1459 14.117C16.851 13.984 16.371 13.7931 16.0877 13.6948C15.8043 13.5965 15.2144 13.423 14.7865 13.3132C14.3586 13.2033 13.6935 13.0587 13.3119 12.9951C12.8839 12.9199 12.2073 12.8621 11.5481 12.8447C10.8888 12.8216 10.2238 12.839 9.81319 12.8794C9.44887 12.9199 8.82431 13.0182 8.42529 13.0992C8.02627 13.1802 7.58099 13.2553 7.43063 13.2669C7.17618 13.29 7.1357 13.2727 6.95065 13.0876C6.81186 12.9488 6.74825 12.8332 6.74825 12.7117C6.74825 12.6192 6.78873 12.4573 6.83499 12.3648C6.88125 12.2722 6.99691 12.1508 7.09522 12.1045C7.19353 12.0583 7.65038 11.9426 8.1188 11.8501C8.593 11.7518 9.28695 11.6477 9.66862 11.6072C10.1023 11.5667 10.8079 11.5494 11.5481 11.5725C12.2015 11.5899 13.0054 11.6477 13.3408 11.6997C13.6762 11.7518 14.2718 11.8732 14.6708 11.9657C15.0699 12.0583 15.6539 12.2144 15.972 12.3127C16.2901 12.411 16.903 12.6308 17.331 12.8043C17.7589 12.9777 18.1175 13.1108 18.129 13.105C18.1406 13.0934 17.9844 12.9546 17.782 12.7927C17.5796 12.6308 17.2616 12.3937 17.0707 12.2665C16.8799 12.1392 16.4867 11.9021 16.2033 11.7402C15.9199 11.5841 15.4342 11.347 15.1335 11.2197C14.8328 11.0925 14.3239 10.9132 14.0058 10.8149C13.6877 10.7166 13.2193 10.5952 12.9649 10.5431C12.7104 10.4853 12.2015 10.4101 11.8372 10.3639C11.4729 10.3234 10.8425 10.2829 9.69753 10.2829L9.52404 10.1094C9.38525 9.97064 9.35056 9.88389 9.35056 9.69306C9.34478 9.53692 9.38526 9.39234 9.45465 9.29982C9.51248 9.21886 9.65127 9.12055 9.76114 9.07428C9.91728 9.00489 10.1544 8.99911 10.9409 9.02802C11.5076 9.04537 12.2304 9.11476 12.6468 9.18994C13.0458 9.25355 13.682 9.39813 14.0636 9.50222C14.4453 9.60631 15.0062 9.79136 15.307 9.90702C15.6077 10.0285 16.0761 10.2366 16.3479 10.3697C16.6197 10.5084 17.0476 10.7455 17.3021 10.9017C17.5565 11.0578 17.8399 11.2371 17.9324 11.2949C18.1059 11.4106 18.1059 11.4106 18.0423 11.2949C18.0076 11.2313 17.7069 10.919 17.3772 10.5952C17.0534 10.2771 16.5619 9.83184 16.2901 9.61209C16.0183 9.38656 15.6192 9.07428 15.3937 8.91236C15.1682 8.75044 14.6766 8.42081 14.2949 8.17793C13.9133 7.94083 13.5374 7.69795 13.4622 7.64012C13.3812 7.58229 13.2829 7.44928 13.2425 7.35098C13.1904 7.21218 13.1846 7.10809 13.2251 6.95774C13.2598 6.84786 13.3523 6.70329 13.4449 6.63968C13.5432 6.5645 13.6877 6.51824 13.8323 6.52402C14.0116 6.52402 14.1909 6.5992 14.613 6.85943C14.9137 7.0387 15.4226 7.37411 15.7407 7.59386C16.0587 7.81361 16.5792 8.20106 16.8973 8.45551C17.2153 8.70996 17.7184 9.15524 18.0134 9.44439C18.3083 9.72775 18.5685 9.9475 18.5917 9.91859C18.6148 9.89546 18.5049 9.62366 18.343 9.31138C18.1811 9.00489 17.8804 8.49021 17.6722 8.17215C17.4582 7.85409 17.1054 7.39724 16.8799 7.16014C16.6544 6.92304 16.4462 6.65124 16.4173 6.55293C16.3826 6.43727 16.3826 6.31005 16.4288 6.17704Z" fill="#030303"/>
<path d="M0.485352 17.2976C0.577878 17.2398 0.7398 17.1646 0.849675 17.1241C0.959551 17.0836 1.16195 17.0605 1.29496 17.0778C1.43375 17.0952 1.64772 17.1588 1.77494 17.2224C1.90217 17.286 2.06987 17.4248 2.14505 17.5289C2.23179 17.6388 2.35902 17.9915 2.46889 18.4079C2.5672 18.7896 2.74069 19.3505 2.85635 19.6512C2.96622 19.9519 3.2091 20.4898 3.38259 20.8367C3.56186 21.1895 3.83944 21.6695 3.99558 21.9066C4.15172 22.1437 4.43508 22.5485 4.6317 22.8029C4.82254 23.0574 5.24469 23.5373 5.56275 23.867C5.88081 24.1966 6.40127 24.6881 6.71933 24.9542C7.03739 25.2202 7.52316 25.6018 7.80652 25.7985C8.0841 25.9951 8.60456 26.3363 8.9631 26.5502C9.31586 26.7642 9.97511 27.1228 10.4204 27.3367C11.0334 27.6374 11.2763 27.7878 11.4151 27.9555C11.5307 28.0885 11.629 28.2967 11.6695 28.4702C11.7158 28.6841 11.7158 28.8229 11.6695 29.008C11.6348 29.141 11.5191 29.3492 11.4151 29.4706C11.3052 29.5863 11.1259 29.7309 11.0103 29.7887C10.8888 29.8407 10.6633 29.887 10.4956 29.887C10.2469 29.887 10.0619 29.8292 9.52404 29.5805C9.15972 29.4128 8.54673 29.0947 8.16506 28.875C7.78339 28.661 7.1704 28.2793 6.80608 28.0307C6.44175 27.782 5.85768 27.3541 5.50492 27.0707C5.15216 26.7931 4.52761 26.2264 4.11124 25.81C3.69487 25.3994 3.13971 24.7865 2.8737 24.451C2.60768 24.1156 2.22601 23.5952 2.02939 23.2945C1.83277 22.9938 1.49736 22.4212 1.29496 22.0222C1.08677 21.6232 0.832327 21.0912 0.734017 20.8367C0.635707 20.5823 0.479569 20.1543 0.387042 19.8825C0.300299 19.6108 0.167292 19.1308 0.0978965 18.8127C-0.0119788 18.3327 -0.0235446 18.1939 0.0342845 18.0031C0.068982 17.8759 0.149943 17.685 0.213555 17.5867C0.277167 17.4826 0.398608 17.3496 0.485352 17.2976Z" fill="#030303"/>
<path d="M38.1553 17.2398C38.2478 17.1877 38.3981 17.1299 38.4849 17.101C38.5716 17.0778 38.7046 17.0547 38.7856 17.0547C38.8666 17.0547 39.0285 17.0836 39.1557 17.1241C39.2771 17.1588 39.468 17.2745 39.5836 17.367C39.6993 17.4595 39.8381 17.6446 39.8959 17.7718C39.948 17.899 40 18.1014 40 18.2229C40 18.3385 39.9364 18.6913 39.8612 19.0035C39.7802 19.31 39.6299 19.8247 39.52 20.1428C39.4101 20.4608 39.2251 20.9408 39.1094 21.2126C38.988 21.4844 38.774 21.9239 38.6294 22.1957C38.4791 22.4675 38.2189 22.907 38.0454 23.1788C37.8719 23.4506 37.5307 23.9306 37.2878 24.2486C37.0507 24.5667 36.4204 25.2549 35.8941 25.7869C35.3679 26.3131 34.6682 26.9493 34.3327 27.2095C33.9973 27.4639 33.4537 27.8572 33.1183 28.0769C32.7829 28.2967 32.2625 28.6263 31.9618 28.8056C31.661 28.9791 31.0885 29.2798 30.6895 29.4706C30.2905 29.6615 29.8915 29.8292 29.7932 29.8465C29.7006 29.8639 29.4924 29.8465 29.3305 29.8118C29.1513 29.7771 28.9662 29.6846 28.8448 29.5747C28.7407 29.4764 28.6019 29.2971 28.544 29.1815C28.4747 29.0427 28.4342 28.8345 28.4342 28.6321C28.4284 28.3487 28.4573 28.2504 28.6192 28.0133C28.7927 27.7531 28.8852 27.6895 29.6775 27.2905C30.1575 27.0476 30.8283 26.6833 31.1695 26.4751C31.5165 26.2669 32.1237 25.8563 32.5285 25.5556C32.9969 25.2086 33.5925 24.6824 34.165 24.1099C34.6624 23.6125 35.258 22.9475 35.4951 22.6294C35.7322 22.3114 36.0734 21.8025 36.2527 21.5018C36.4319 21.2011 36.6806 20.7326 36.8078 20.4608C36.9351 20.189 37.1085 19.7727 37.1895 19.5356C37.2762 19.2985 37.4266 18.8011 37.5191 18.4368C37.6117 18.0725 37.7504 17.6735 37.8314 17.5578C37.9124 17.4364 38.0569 17.2976 38.1553 17.2398Z" fill="#030303"/>
</svg>
