<svg width="32" height="36" viewBox="0 0 32 36" fill="none" xmlns="http://www.w3.org/2000/svg">
<path fill-rule="evenodd" clip-rule="evenodd" d="M18.83 3.12227C18.5126 1.85512 17.3662 0.916672 16.0007 0.916672C14.6352 0.916672 13.489 1.85492 13.1714 3.12187C13.1167 3.14963 13.0623 3.17825 13.0082 3.20773L5.01786 7.56469C4.88012 7.63979 4.74595 7.71965 4.6155 7.80399C4.27204 7.6618 3.89551 7.58334 3.50065 7.58334C1.88982 7.58334 0.583984 8.88917 0.583984 10.5C0.583984 11.4599 1.04773 12.3116 1.76341 12.8431C1.76109 12.9125 1.75993 12.9821 1.75993 13.0519V21.2813C1.75993 21.6156 1.78661 21.9459 1.83843 22.2697C1.0803 22.7964 0.583984 23.6736 0.583984 24.6667C0.583984 26.2775 1.88982 27.5833 3.50065 27.5833C4.19325 27.5833 4.82946 27.3419 5.32974 26.9387L7.50922 28.1271L4.08574 34.0404C3.73985 34.6378 3.94378 35.4026 4.54123 35.7485C5.13868 36.0943 5.90341 35.8904 6.24931 35.293L9.70485 29.3243L13.0082 31.1256C13.0623 31.155 13.1167 31.1837 13.1714 31.2114C13.4889 32.4784 14.6352 33.4167 16.0007 33.4167C17.3662 33.4167 18.5126 32.4782 18.83 31.211C18.8845 31.1834 18.9386 31.1549 18.9924 31.1256L22.2966 29.3239L25.7524 35.293C26.0983 35.8904 26.863 36.0943 27.4605 35.7485C28.0579 35.4026 28.2619 34.6378 27.916 34.0404L24.4922 28.1266L26.6713 26.9384C27.1716 27.3418 27.8079 27.5833 28.5007 27.5833C30.1115 27.5833 31.4173 26.2775 31.4173 24.6667C31.4173 23.6733 30.9207 22.7959 30.1623 22.2693C30.214 21.9456 30.2407 21.6154 30.2407 21.2814V13.0519C30.2407 12.9823 30.2395 12.9129 30.2372 12.8436C30.9533 12.3121 31.4173 11.4602 31.4173 10.5C31.4173 8.88917 30.1115 7.58334 28.5007 7.58334C28.1056 7.58334 27.729 7.66187 27.3854 7.80416C27.2548 7.71976 27.1206 7.63985 26.9828 7.56469L18.9924 3.20773C18.9386 3.1784 18.8845 3.14991 18.83 3.12227ZM13.7286 5.66242C14.2633 6.32568 15.0824 6.75 16.0007 6.75C16.9188 6.75 17.7378 6.32579 18.2724 5.66268L25.6926 9.7087C25.6218 9.96034 25.584 10.2257 25.584 10.5C25.584 11.8479 26.4984 12.9823 27.7407 13.3167V21.2814C27.7407 21.4778 27.7253 21.672 27.6955 21.8626C26.4762 22.212 25.584 23.3351 25.584 24.6667C25.584 24.6724 25.584 24.6781 25.584 24.6838L23.2392 25.9624L18.7534 18.214C19.1198 17.6787 19.3342 17.0311 19.3342 16.3333C19.3342 14.4924 17.8418 13 16.0009 13C14.1599 13 12.6675 14.4924 12.6675 16.3333C12.6675 17.0311 12.8819 17.6787 13.2484 18.214L8.76222 25.9628L6.41727 24.6842C6.4173 24.6783 6.41732 24.6725 6.41732 24.6667C6.41732 23.3349 5.52472 22.2116 4.30513 21.8624C4.27529 21.6719 4.25993 21.4778 4.25993 21.2813V13.3169C5.5026 12.9827 6.41732 11.8482 6.41732 10.5C6.41732 10.2256 6.37943 9.96011 6.30861 9.70838L13.7286 5.66242ZM10.9578 27.16L13.7287 28.6709C14.2633 28.0077 15.0824 27.5833 16.0007 27.5833C16.9188 27.5833 17.7378 28.0075 18.2724 28.6706L21.0436 27.1596L16.6671 19.6001C16.4518 19.6438 16.229 19.6667 16.0009 19.6667C15.7727 19.6667 15.5499 19.6438 15.3347 19.6001L10.9578 27.16Z" fill="black"/>
</svg>
