<svg width="30" height="31" viewBox="0 0 30 31" fill="none" xmlns="http://www.w3.org/2000/svg">
<path d="M27.6811 0.12543C27.7893 0.0951539 27.9709 0.0562273 28.092 0.0389266C28.2131 0.0216259 28.3386 0.00432518 28.3732 0C28.4078 0 28.5591 0.0173007 28.7105 0.0389266C28.8576 0.0648777 29.0695 0.129755 29.1863 0.185983C29.2988 0.24221 29.4718 0.376291 29.5669 0.480095C29.6664 0.579574 29.7875 0.743931 29.8351 0.839085C29.8827 0.934238 29.9432 1.13752 29.9735 1.29323C30.0081 1.49651 30.0081 1.66087 29.9778 1.88578C29.9519 2.05878 29.887 2.33127 29.8351 2.4913C29.7832 2.65566 29.6491 2.95842 29.541 3.17468C29.4328 3.38661 29.2252 3.73695 29.0868 3.95321C28.9441 4.16515 28.6413 4.57604 28.4121 4.8615C28.1829 5.14696 27.7417 5.65301 27.4303 5.98605C27.1232 6.31908 25.6916 7.76369 21.6475 11.8034L21.9589 13.4383C22.1319 14.3336 22.7115 17.3656 23.2478 20.1726C23.7842 22.9797 24.3421 25.8905 24.4848 26.6388C24.6665 27.586 24.7357 28.0488 24.7184 28.1526C24.6924 28.2737 24.5367 28.4553 23.9053 29.0955C23.4727 29.528 23.0532 29.9129 22.9797 29.9475C22.9018 29.9821 22.7548 30.0124 22.6553 30.0124C22.5472 30.0124 22.4131 29.9778 22.3309 29.9259C22.253 29.8783 22.1579 29.7962 22.1233 29.7399C22.0887 29.688 21.6129 28.7019 21.0593 27.5471C20.51 26.3922 19.1951 23.6284 18.1355 21.4053C17.0758 19.1822 16.1978 17.3483 16.1805 17.331C16.1675 17.3137 14.9738 18.4815 10.9038 22.5515L11.2498 23.7625C11.4401 24.4286 11.7472 25.5359 11.9332 26.2279C12.1235 26.9199 12.2965 27.6076 12.3268 27.7633C12.3743 28.0055 12.37 28.0704 12.3095 28.2175C12.2619 28.3386 12.0067 28.624 11.4747 29.156C11.0508 29.5756 10.6529 29.9389 10.588 29.9648C10.5188 29.9908 10.3848 30.0124 10.2853 30.0124C10.1771 30.0124 10.0431 29.9778 9.96089 29.9259C9.88303 29.8783 9.76625 29.7529 9.70137 29.6491C9.63217 29.5453 8.86229 28.1569 6.37964 23.6674L5.83899 23.3646C5.54055 23.2003 4.15217 22.426 2.74649 21.6475C1.04669 20.709 0.164357 20.1943 0.108129 20.1164C0.0648777 20.0515 0.0173007 19.9045 0.00865036 19.7834C-0.00432518 19.6493 0.0129755 19.5239 0.047577 19.4503C0.0821784 19.3898 0.441168 18.9919 0.84341 18.568C1.39271 17.9971 1.62627 17.7808 1.77332 17.7159C1.92038 17.6511 2.01553 17.6381 2.16259 17.664C2.27072 17.6813 2.89354 17.837 3.54665 18.0144C4.19975 18.1874 5.35024 18.5074 7.46093 19.1086L10.0863 16.4833C11.5309 15.0386 12.6987 13.8449 12.6814 13.8319C12.6641 13.8146 9.94791 12.5127 6.63915 10.9384C3.33039 9.36401 0.531997 8.0232 0.410892 7.96265C0.294112 7.89778 0.151381 7.77667 0.0994791 7.69449C0.0302762 7.59501 0 7.47823 0 7.36145C0 7.25765 0.0302762 7.11059 0.0648777 7.03706C0.0994791 6.95921 0.48442 6.53967 0.916938 6.10715C1.55274 5.48 1.73872 5.31997 1.85983 5.29402C1.97228 5.27239 4.11757 5.67031 10.056 6.8035C14.4807 7.65124 18.1225 8.35192 18.1441 8.36057C18.1657 8.36922 19.5498 7.01976 21.215 5.36322C22.9797 3.6072 24.4675 2.16259 24.7833 1.89875C25.0817 1.65222 25.458 1.34946 25.6267 1.22403C25.7954 1.10292 26.1154 0.886661 26.3403 0.748256C26.5652 0.60985 26.9156 0.423867 27.1189 0.337364C27.3221 0.25086 27.573 0.155706 27.6811 0.12543Z" fill="black"/>
</svg>
