<svg width="18" height="48" viewBox="0 0 18 48" fill="none" xmlns="http://www.w3.org/2000/svg">
<path d="M8.97722 3.05008C8.95443 0.577503 8.97721 0.111816 9.11392 0.0674645C9.20506 0.0342011 9.35316 0.000937742 9.42152 0.000937742C9.50127 -0.0101501 9.61519 0.0785523 9.67215 0.18943C9.72911 0.28922 9.7519 1.60867 9.68354 5.97726L10.3101 6.25445L10.4241 13.4615L10.7089 13.4948C10.8684 13.517 11.0506 13.5835 11.1076 13.6389C11.1759 13.7055 11.2443 15.413 11.3354 22.4426L11.8139 22.4094C12.2013 22.3872 12.3266 22.4315 12.4177 22.609C12.4861 22.742 12.5316 24.4717 12.5316 31.3683H13.0443C13.3519 31.3683 13.5797 31.4237 13.6139 31.5014C13.6481 31.579 13.6937 33.597 13.7278 40.294L14.1266 40.2607C14.343 40.2496 14.5937 40.294 14.6734 40.3716C14.7873 40.4825 14.8215 41.0701 14.8101 42.822C14.8101 45.1061 14.8101 45.1172 15.0608 45.1837C15.2089 45.217 15.4481 45.2391 15.6076 45.2281C15.7671 45.217 15.9608 45.2059 16.0291 45.217C16.1203 45.2281 16.1886 45.4276 16.2342 46.2814L16.8608 46.3147C17.2025 46.3257 17.6013 46.359 17.738 46.3923C17.9772 46.4477 18 46.5142 18 48H0L0.056962 46.3923L1.76582 46.2814L1.8 45.7824C1.82278 45.5052 1.90253 45.2502 1.97089 45.2059C2.05063 45.1504 2.23291 45.1504 2.39241 45.1837C2.5519 45.217 2.79114 45.217 3.18987 45.1172V40.8262C3.18987 37.522 3.22405 36.4798 3.32658 36.3356C3.41772 36.2248 3.66835 36.1361 4.38608 36.0806L4.42025 31.8118C4.44304 27.9533 4.46582 27.5208 4.6481 27.3434C4.78481 27.2104 5.01266 27.1439 5.92405 27.1549V22.8529C5.92405 18.9389 5.94684 18.5397 6.12911 18.3623C6.24304 18.2404 6.48228 18.1627 7.17722 18.1738V13.9383C7.17722 10.0687 7.2 9.66949 7.38228 9.49209C7.4962 9.37012 7.73544 9.29251 8.43038 9.3036V7.80675C8.43038 6.33207 8.43038 6.30989 9 5.97726L8.97722 3.05008Z" fill="black"/>
</svg>
