<svg width="34" height="39" viewBox="0 0 34 39" fill="none" xmlns="http://www.w3.org/2000/svg">
<path d="M24.9452 0.895438C25.234 0.688361 25.6541 0.397571 25.8817 0.24777C26.1093 0.102375 26.2974 -0.0121784 26.3018 0.00103934C26.3018 0.00985115 26.2712 0.124405 26.2318 0.252176C26.1924 0.379947 26.1093 0.741232 26.048 1.05846C25.9867 1.37128 25.9167 1.81627 25.8905 2.03657C25.8642 2.26127 25.8511 2.46394 25.8642 2.49038C25.8773 2.51241 26.0086 2.40226 26.1618 2.24365C26.3106 2.08063 26.5819 1.8383 26.7613 1.70172C26.9407 1.56514 27.1945 1.38449 27.3214 1.30078C27.4483 1.21707 27.5577 1.15539 27.5709 1.1686C27.5796 1.18182 27.549 1.34043 27.5008 1.52108C27.4571 1.70172 27.3958 2.01013 27.3652 2.20399C27.3345 2.39785 27.3127 2.97062 27.317 3.48171C27.317 4.04125 27.3477 4.68452 27.3914 5.11189C27.4352 5.49961 27.5052 6.03272 27.6234 6.78613L27.8816 7.09455C28.026 7.26197 28.2448 7.55276 28.3629 7.7334C28.4854 7.91405 28.6999 8.2533 28.8399 8.48241C28.9799 8.71152 29.2469 9.19617 29.4351 9.56186C29.6232 9.92314 29.877 10.4518 30.0039 10.7294C30.1265 11.007 30.354 11.5313 30.5116 11.897C30.6691 12.2583 30.9185 12.8751 31.0717 13.2628C31.2249 13.6505 31.4787 14.3246 31.6406 14.7608C31.8025 15.197 32.0344 15.8491 32.157 16.2148C32.3714 16.8624 32.3845 16.8889 32.9359 17.6908C33.2422 18.1402 33.5617 18.6556 33.6448 18.8363C33.7323 19.0169 33.8461 19.3342 33.903 19.5412C33.9905 19.8717 34.0036 20.0083 33.9993 20.7308C33.9993 21.493 33.9905 21.5724 33.8767 21.9425C33.8111 22.1627 33.6929 22.4579 33.6185 22.5989C33.5398 22.7443 33.3997 22.9514 33.2991 23.0616C33.1766 23.2025 32.984 23.3347 32.6865 23.4889C32.4501 23.6167 32.0869 23.7753 31.8813 23.8502C31.6756 23.9251 31.3343 24.0176 31.1154 24.0573C30.8441 24.1102 30.6122 24.1278 30.3715 24.1102C30.179 24.0969 29.9033 24.0441 29.7589 23.9912C29.6145 23.9427 29.4175 23.8546 29.3213 23.7973C29.225 23.7401 29.0193 23.555 28.8618 23.392C28.7042 23.2246 28.5161 22.969 28.4417 22.8236C28.3629 22.6782 28.2535 22.4227 28.1923 22.2509C28.131 22.079 28.0566 21.8191 27.9647 21.3961L27.5927 21.33C27.3871 21.2948 27.0326 21.2023 26.805 21.123C26.5775 21.0481 26.1705 20.8806 25.908 20.7485C25.6454 20.6207 25.2209 20.3784 24.9671 20.2109C24.7133 20.0435 24.3588 19.788 24.1794 19.6426C24 19.4972 23.6806 19.224 23.4705 19.0301C23.2605 18.8407 22.9104 18.4838 22.6872 18.2415C22.4684 17.9992 22.1358 17.6114 21.952 17.3823C21.7682 17.1532 21.5976 16.9285 21.5757 16.8801C21.5319 16.8052 21.5275 16.8052 21.3788 16.8757C21.2956 16.9197 21.0987 17.0387 20.9411 17.1444C20.7836 17.2458 20.5123 17.4661 20.3329 17.6335C20.1535 17.7965 19.8909 18.0917 19.7465 18.2855C19.6021 18.4794 19.392 18.8363 19.2739 19.0786C19.1601 19.3209 19.0244 19.669 18.9719 19.8496C18.9238 20.0303 18.8538 20.3475 18.8188 20.5546C18.7794 20.7617 18.74 21.1758 18.7225 21.4798C18.7094 21.7927 18.7225 22.2685 18.7487 22.5813C18.7794 22.8853 18.8494 23.392 18.9063 23.7048C18.9632 24.0176 19.1032 24.586 19.2126 24.9605C19.3264 25.335 19.5058 25.8725 19.6152 26.1501C19.7246 26.4277 19.9653 26.974 20.1535 27.3617C20.3416 27.7494 20.6217 28.2737 20.7749 28.5293C20.928 28.7848 21.23 29.2386 21.4488 29.5426C21.6632 29.8466 21.9433 30.2916 22.0658 30.534C22.1883 30.7763 22.3677 31.2125 22.464 31.5033C22.5603 31.7941 22.6784 32.2391 22.7266 32.4946C22.7747 32.7501 22.8404 33.1951 22.871 33.4859C22.9016 33.8208 22.9147 34.3319 22.8972 34.8738C22.8841 35.3452 22.8403 35.9797 22.801 36.2837C22.7616 36.5877 22.6828 37.0635 22.6259 37.3411C22.5734 37.6187 22.464 38.0857 22.3896 38.3765C22.3108 38.6673 22.2365 38.9316 22.219 38.9625C22.1927 39.0109 22.0877 39.0109 21.6632 38.9713C21.3744 38.9448 20.8317 38.8832 20.4598 38.8391C20.0878 38.7906 19.5539 38.7113 19.2782 38.6629C19.0026 38.61 18.4906 38.5131 18.1405 38.4382C17.7904 38.3677 17.1209 38.2091 16.6526 38.0857C16.1844 37.9623 15.4667 37.7552 15.0554 37.6187C14.644 37.4865 14.0839 37.2882 13.8082 37.1869C13.5325 37.0811 13.0205 36.8741 12.6704 36.7243C12.3203 36.5745 11.7033 36.2793 11.292 36.0678C10.8806 35.8519 10.3599 35.5655 10.1323 35.4245C9.90476 35.2879 9.5503 35.0588 9.34463 34.9223C9.13895 34.7857 8.77574 34.5257 8.53506 34.3451C8.29438 34.1644 7.94867 33.8913 7.76925 33.7327C7.58983 33.5784 7.21787 33.2304 6.94656 32.9616C6.67086 32.6929 6.2989 32.2963 6.11073 32.076C5.92256 31.8557 5.63374 31.49 5.46308 31.2609C5.29241 31.0318 5.02985 30.6441 4.87231 30.4018C4.71477 30.1595 4.50035 29.8026 4.39094 29.6087C4.28154 29.4149 4.10213 29.0888 3.99272 28.8818C3.88332 28.6747 3.6864 28.2605 3.55512 27.9565C3.42384 27.6525 3.25317 27.2295 3.1744 27.0092C3.10001 26.7889 2.96873 26.3924 2.88559 26.1281C2.80244 25.8637 2.66678 25.3086 2.58364 24.8944C2.50049 24.4803 2.41297 23.9515 2.38672 23.7136C2.36484 23.4801 2.32983 23.0219 2.3167 22.7003C2.2992 22.361 2.30795 21.8323 2.33858 21.4358C2.36921 21.0613 2.43048 20.5326 2.47424 20.2682C2.518 19.9994 2.61865 19.5368 2.69304 19.2328C2.76743 18.9288 2.92059 18.4354 3.02999 18.1313C3.1394 17.8273 3.30569 17.4264 3.39758 17.2369C3.52011 16.9902 3.55512 16.8889 3.51574 16.8713C3.4851 16.8536 3.36257 16.858 3.24005 16.8757C3.12189 16.8933 2.82432 16.977 2.58364 17.0607C2.34296 17.1444 1.89222 17.3471 1.57715 17.5101C1.26645 17.6731 0.785084 17.9463 0.513769 18.1137C0.242455 18.2811 0.0105242 18.4089 0.00177212 18.3957C-0.011356 18.3825 0.0499086 18.1666 0.13743 17.911C0.220574 17.6555 0.417496 17.1885 0.570658 16.8757C0.723819 16.5628 1.02577 16.0341 1.24019 15.7081C1.45462 15.3821 1.78282 14.915 1.97099 14.6727C2.15916 14.4304 2.43923 14.0823 2.59677 13.9017C2.75868 13.721 3.14377 13.3069 3.45885 12.9852C3.76955 12.6592 4.27279 12.1746 4.57474 11.9014C4.87669 11.6326 5.30116 11.2581 5.51559 11.0775C5.73439 10.8968 6.12823 10.5796 6.3908 10.3725C6.65774 10.1699 7.06033 9.86146 7.28789 9.69403C7.51544 9.52661 8.07995 9.13889 8.53506 8.83488C8.99454 8.52647 9.51092 8.18721 9.68596 8.08147C9.90914 7.94489 9.99228 7.87439 9.95727 7.84355C9.93102 7.81712 9.69034 7.79068 9.41902 7.78628C9.12145 7.77306 8.71448 7.79949 8.3819 7.84355C8.07995 7.88321 7.59859 7.96251 7.30977 8.02419C7.02095 8.08588 6.72775 8.14756 6.65774 8.16518C6.55271 8.19162 6.53083 8.18281 6.54834 8.12994C6.56146 8.09469 6.79777 7.86999 7.07346 7.62766C7.34915 7.38974 7.79113 7.02846 8.05369 6.83019C8.32063 6.62752 8.802 6.29267 9.12583 6.08119C9.44965 5.87411 10.1017 5.50842 10.5699 5.27491C11.0382 5.03699 11.6946 4.74179 12.0271 4.61402C12.3553 4.48625 12.9286 4.2968 13.2962 4.19106C13.6594 4.08531 14.2064 3.94873 14.5084 3.88705C14.8103 3.82537 15.3311 3.73284 15.668 3.68438C16.005 3.63591 16.5695 3.57423 16.9283 3.5522C17.2828 3.52576 17.821 3.50373 18.1317 3.50373C18.438 3.50373 19.0332 3.53458 19.4533 3.56982C19.8734 3.60507 20.416 3.66235 20.6567 3.702C20.8974 3.74165 21.2781 3.81215 21.5013 3.86061C21.7201 3.90467 21.917 3.93551 21.9389 3.9267C21.9564 3.91789 21.987 3.85621 22.0045 3.78571C22.0264 3.71522 22.1314 3.51695 22.2408 3.34953C22.3502 3.1821 22.6522 2.83404 22.906 2.57849C23.1598 2.32295 23.6062 1.92201 23.895 1.69291C24.1838 1.4638 24.6564 1.10252 24.9452 0.895438Z" fill="#010101"/>
</svg>
